<svg width="16" height="16" viewBox="0 0 16 16" fill="none" xmlns="http://www.w3.org/2000/svg">
<g id="material-symbols:call">
<path id="Vector" d="M13.3 14C11.8667 14 10.4696 13.6804 9.10867 13.0413C7.74778 12.4022 6.54222 11.5578 5.492 10.508C4.44178 9.45822 3.59733 8.25267 2.95867 6.89133C2.32 5.53 2.00044 4.13289 2 2.7C2 2.5 2.06667 2.33333 2.2 2.2C2.33333 2.06667 2.5 2 2.7 2H5.4C5.55556 2 5.69444 2.05 5.81667 2.15C5.93889 2.25 6.01111 2.37778 6.03333 2.53333L6.46667 4.86667C6.48889 5.02222 6.486 5.164 6.458 5.292C6.43 5.42 6.36622 5.53378 6.26667 5.63333L4.66667 7.26667C5.13333 8.06667 5.71667 8.81667 6.41667 9.51667C7.11667 10.2167 7.88889 10.8222 8.73333 11.3333L10.3 9.76667C10.4 9.66667 10.5307 9.59178 10.692 9.542C10.8533 9.49222 11.0116 9.47822 11.1667 9.5L13.4667 9.96667C13.6222 10 13.75 10.0751 13.85 10.192C13.95 10.3089 14 10.4449 14 10.6V13.3C14 13.5 13.9333 13.6667 13.8 13.8C13.6667 13.9333 13.5 14 13.3 14Z" fill="#F8F8F8"/>
</g>
</svg>
