<svg width="28" height="28" viewBox="0 0 28 28" fill="none" xmlns="http://www.w3.org/2000/svg">
<g id="heroicons-solid:chat-alt">
<path id="Vector" fill-rule="evenodd" clip-rule="evenodd" d="M24.5217 7.42728V17.9411C24.5217 18.6382 24.2448 19.3067 23.7519 19.7997C23.2589 20.2926 22.5904 20.5695 21.8933 20.5695H15.3222L8.75104 25.8264V20.5695H6.12259C5.42548 20.5695 4.75692 20.2926 4.264 19.7997C3.77107 19.3067 3.49414 18.6382 3.49414 17.9411V7.42728C3.49414 6.73017 3.77107 6.06161 4.264 5.56868C4.75692 5.07575 5.42548 4.79883 6.12259 4.79883H21.8933C22.5904 4.79883 23.2589 5.07575 23.7519 5.56868C24.2448 6.06161 24.5217 6.73017 24.5217 7.42728ZM10.0653 11.3699H7.43681V13.9984H10.0653V11.3699ZM12.6937 11.3699H15.3222V13.9984H12.6937V11.3699ZM20.5791 11.3699H17.9506V13.9984H20.5791V11.3699Z" fill="white"/>
</g>
</svg>
