<svg width="28" height="28" viewBox="0 0 28 28" fill="none" xmlns="http://www.w3.org/2000/svg">
<g id="bxs:phone-call">
<path id="Vector" d="M22.7749 12.9103H24.9653C24.9653 7.29196 20.7236 3.05469 15.0977 3.05469V5.24506C19.5463 5.24506 22.7749 8.46819 22.7749 12.9103Z" fill="#19294F"/>
<path id="Vector_2" d="M15.0889 9.61869C17.3921 9.61869 18.3745 10.6011 18.3745 12.9043H20.5648C20.5648 9.37227 18.6209 7.42832 15.0889 7.42832V9.61869ZM18.8366 15.5798C18.6262 15.3885 18.3496 15.2865 18.0654 15.2953C17.7812 15.3041 17.5114 15.423 17.3132 15.6269L14.6924 18.3221C14.0616 18.2017 12.7934 17.8063 11.4879 16.5041C10.1825 15.1976 9.7871 13.9261 9.66991 13.2996L12.363 10.6777C12.5671 10.4796 12.6862 10.2099 12.695 9.92557C12.7038 9.64124 12.6016 9.36465 12.4101 9.15433L8.36335 4.70459C8.17174 4.49361 7.90543 4.36563 7.62098 4.34784C7.33654 4.33005 7.05635 4.42385 6.83995 4.60931L4.46339 6.64745C4.27405 6.83748 4.16103 7.0904 4.14579 7.35822C4.12936 7.63202 3.81614 14.1177 8.84524 19.149C13.2326 23.5352 18.7282 23.8561 20.2417 23.8561C20.463 23.8561 20.5988 23.8495 20.6349 23.8474C20.9027 23.8324 21.1555 23.7188 21.3446 23.5287L23.3816 21.151C23.5672 20.9347 23.6612 20.6546 23.6436 20.3702C23.6261 20.0858 23.4983 19.8194 23.2875 19.6276L18.8366 15.5798Z" fill="#19294F"/>
</g>
</svg>
