<svg width="12" height="15" viewBox="0 0 12 15" fill="none" xmlns="http://www.w3.org/2000/svg">
<path id="Vector" d="M6.09618 15H5.8618C5.75672 14.932 5.64305 14.8742 5.54813 14.7941C5.2829 14.5715 5.02118 14.3441 4.76532 14.1105C3.18993 12.6715 1.82626 11.0645 0.852036 9.15117C0.422349 8.30742 0.0875832 7.43555 0.0176614 6.47656C-0.050698 5.53516 0.0778176 4.62734 0.430552 3.75391C0.822349 2.78398 1.43211 1.97109 2.24813 1.31797C3.01493 0.704297 3.88016 0.294531 4.8493 0.116016C5.10711 0.0683594 5.36805 0.0382813 5.62743 0C5.88133 0 6.13524 0 6.38915 0C6.48016 0.0125 6.57118 0.0257813 6.66219 0.0378906C8.57196 0.296484 10.0563 1.23164 11.0743 2.86758C12.0141 4.37773 12.1958 6.00859 11.7013 7.70547C11.4028 8.72891 10.8774 9.65156 10.2962 10.5391C9.33485 12.0074 8.14813 13.2785 6.83094 14.4309C6.59813 14.6344 6.34149 14.8109 6.09618 15ZM5.97391 9.69375C7.97 9.70156 9.60282 8.07422 9.61415 6.06562C9.62586 4.06211 7.99813 2.42578 5.9829 2.41523C3.98797 2.40469 2.35477 4.03164 2.34266 6.04141C2.33055 8.04375 3.96297 9.68555 5.97391 9.69336V9.69375Z" fill="white"/>
</svg>
