<svg width="26" height="26" viewBox="0 0 26 26" fill="none" xmlns="http://www.w3.org/2000/svg">
<g id="Group">
<path id="Vector" d="M11.3757 21.6673C11.3757 22.0983 11.5469 22.5116 11.8516 22.8164C12.1563 23.1211 12.5697 23.2923 13.0007 23.2923C13.4316 23.2923 13.845 23.1211 14.1497 22.8164C14.4544 22.5116 14.6257 22.0983 14.6257 21.6673V14.6257H21.6673C22.0983 14.6257 22.5116 14.4544 22.8164 14.1497C23.1211 13.845 23.2923 13.4316 23.2923 13.0007C23.2923 12.5697 23.1211 12.1563 22.8164 11.8516C22.5116 11.5469 22.0983 11.3757 21.6673 11.3757H14.6257V4.33398C14.6257 3.90301 14.4544 3.48968 14.1497 3.18494C13.845 2.88019 13.4316 2.70898 13.0007 2.70898C12.5697 2.70898 12.1563 2.88019 11.8516 3.18494C11.5469 3.48968 11.3757 3.90301 11.3757 4.33398V11.3757H4.33398C3.90301 11.3757 3.48968 11.5469 3.18494 11.8516C2.88019 12.1563 2.70898 12.5697 2.70898 13.0007C2.70898 13.4316 2.88019 13.845 3.18494 14.1497C3.48968 14.4544 3.90301 14.6257 4.33398 14.6257H11.3757V21.6673Z" fill="#19294F"/>
</g>
</svg>
