<svg width="63" height="62" viewBox="0 0 63 62" fill="none" xmlns="http://www.w3.org/2000/svg">
<g id="Group 856" filter="url(#filter0_d_98_9086)">
<path id="Vector" d="M31.0613 54C46.0068 54 58.1226 41.9117 58.1226 27C58.1226 12.0883 46.0068 0 31.0613 0C16.1158 0 4 12.0883 4 27C4 41.9117 16.1158 54 31.0613 54Z" fill="#E4EAF1"/>
<path id="Vector_2" d="M36.979 40.3409L34.9844 38.3509L37.9754 35.365L34.9844 32.3807L36.979 30.3906L39.97 33.3749L42.9627 30.3906L44.9573 32.3807L42.0012 35.365L44.9573 38.3509L42.9627 40.3409L39.97 37.3916L36.979 40.3409Z" fill="#FF6533"/>
<path id="Vector_3" d="M25.011 40.3435C24.8223 40.3465 24.6351 40.3115 24.4603 40.2407C24.2856 40.1698 24.127 40.0645 23.9939 39.9311C23.8609 39.7976 23.7563 39.6388 23.6862 39.464C23.6162 39.2893 23.5822 39.1022 23.5863 38.9141V16.1705C23.583 15.983 23.6177 15.7967 23.6881 15.6228C23.7586 15.4488 23.8634 15.2909 23.9964 15.1582C24.1293 15.0256 24.2876 14.921 24.4619 14.8507C24.6362 14.7804 24.823 14.7458 25.011 14.7491H27.8603V11.9141H33.5591V14.757H36.4085C36.5972 14.7527 36.7847 14.7865 36.96 14.8563C37.1352 14.9261 37.2946 15.0305 37.4284 15.1633C37.5622 15.296 37.6677 15.4544 37.7386 15.6288C37.8096 15.8033 37.8445 15.9902 37.8412 16.1785V27.123C37.3294 27.2621 36.8291 27.4405 36.3449 27.6566C35.8683 27.8704 35.4149 28.1323 34.9918 28.4381V17.6H26.4436V37.5005H31.7142C31.8536 38.0112 32.0324 38.5103 32.249 38.9935C32.4637 39.4688 32.7261 39.9211 33.0322 40.3435H25.011Z" fill="#5943BE"/>
</g>
<defs>
<filter id="filter0_d_98_9086" x="0" y="0" width="62.123" height="62" filterUnits="userSpaceOnUse" color-interpolation-filters="sRGB">
<feFlood flood-opacity="0" result="BackgroundImageFix"/>
<feColorMatrix in="SourceAlpha" type="matrix" values="0 0 0 0 0 0 0 0 0 0 0 0 0 0 0 0 0 0 127 0" result="hardAlpha"/>
<feOffset dy="4"/>
<feGaussianBlur stdDeviation="2"/>
<feComposite in2="hardAlpha" operator="out"/>
<feColorMatrix type="matrix" values="0 0 0 0 0 0 0 0 0 0 0 0 0 0 0 0 0 0 0.05 0"/>
<feBlend mode="normal" in2="BackgroundImageFix" result="effect1_dropShadow_98_9086"/>
<feBlend mode="normal" in="SourceGraphic" in2="effect1_dropShadow_98_9086" result="shape"/>
</filter>
</defs>
</svg>
