<svg width="63" height="62" viewBox="0 0 63 62" fill="none" xmlns="http://www.w3.org/2000/svg">
<g id="Group 854" filter="url(#filter0_d_98_9066)">
<path id="Vector" d="M31.0613 54C46.0068 54 58.1226 41.9117 58.1226 27C58.1226 12.0883 46.0068 0 31.0613 0C16.1158 0 4 12.0883 4 27C4 41.9117 16.1158 54 31.0613 54Z" fill="#E4EAF1"/>
<path id="Vector_2" d="M56.5006 12.241L50.8034 1.67135C50.7117 1.50145 50.5756 1.3595 50.4095 1.26056C50.2435 1.16162 50.0537 1.10938 49.8603 1.10938C49.6668 1.10938 49.4771 1.16162 49.311 1.26056C49.1449 1.3595 49.0088 1.50145 48.9171 1.67135L43.2135 12.241C43.1259 12.4036 43.082 12.5861 43.0862 12.7707C43.0904 12.9553 43.1425 13.1356 43.2374 13.294C43.3315 13.453 43.4653 13.5849 43.6258 13.6768C43.7875 13.7667 43.9693 13.8142 44.1543 13.815H55.5646C55.7502 13.8155 55.9326 13.7677 56.094 13.6764C56.2553 13.585 56.39 13.4532 56.4847 13.294C56.5796 13.1356 56.6317 12.9553 56.6359 12.7707C56.6401 12.5861 56.5962 12.4036 56.5086 12.241H56.5006ZM50.3259 11.9822C50.2634 12.045 50.189 12.0948 50.107 12.1286C50.025 12.1625 49.9371 12.1796 49.8483 12.1791C49.716 12.179 49.5866 12.1399 49.4764 12.0668C49.3663 11.9936 49.2802 11.8896 49.2291 11.7677C49.1783 11.6456 49.1649 11.5111 49.1907 11.3813C49.2164 11.2515 49.2802 11.1323 49.374 11.0388C49.4679 10.9454 49.5874 10.8819 49.7174 10.8562C49.8474 10.8305 49.9821 10.8437 50.1046 10.8942C50.2265 10.9457 50.331 11.0312 50.4055 11.1404C50.4785 11.25 50.5173 11.3788 50.5169 11.5105C50.518 11.5978 50.5016 11.6845 50.4688 11.7654C50.436 11.8464 50.3875 11.9201 50.3259 11.9822ZM50.388 9.53629C50.3871 9.67784 50.3303 9.81332 50.2298 9.91326C50.1293 10.0132 49.9934 10.0695 49.8515 10.0699C49.7812 10.07 49.7115 10.056 49.6467 10.0287C49.5819 10.0014 49.5233 9.96144 49.4742 9.91111C49.4242 9.86193 49.3843 9.80335 49.357 9.73875C49.3297 9.67416 49.3154 9.60481 49.3151 9.5347L49.1224 5.46246C49.1187 5.36519 49.1338 5.2681 49.167 5.17657C49.203 5.08467 49.2571 5.00096 49.3262 4.93041C49.3939 4.86228 49.4745 4.80829 49.5634 4.77158C49.6531 4.7319 49.7502 4.71134 49.8483 4.71123C49.9462 4.71119 50.0431 4.73062 50.1333 4.7684C50.2235 4.80422 50.3054 4.8583 50.3736 4.92723C50.442 4.99769 50.495 5.08143 50.5295 5.17324C50.564 5.26504 50.5793 5.36295 50.5742 5.46087L50.388 9.53629Z" fill="#6A7C9B"/>
<path id="Vector_3" d="M50.5157 11.5139C50.5168 11.6023 50.5 11.6901 50.4664 11.772C50.4327 11.8538 50.3829 11.9281 50.3199 11.9903C50.2574 12.0532 50.183 12.103 50.101 12.1368C50.019 12.1706 49.9311 12.1878 49.8423 12.1873C49.71 12.1872 49.5806 12.1481 49.4704 12.0749C49.3603 12.0017 49.2742 11.8977 49.2231 11.7759C49.1723 11.6537 49.1589 11.5193 49.1847 11.3895C49.2105 11.2597 49.2743 11.1405 49.368 11.0469C49.4619 10.9536 49.5814 10.8901 49.7114 10.8644C49.8414 10.8386 49.9761 10.8519 50.0986 10.9024C50.2205 10.9539 50.325 11.0394 50.3995 11.1486C50.4733 11.2563 50.5137 11.3834 50.5157 11.5139Z" fill="#E4EAF1"/>
<path id="Vector_4" d="M50.5743 5.46217L50.3833 9.536C50.3824 9.67755 50.3256 9.81303 50.2251 9.91297C50.1247 10.0129 49.9887 10.0692 49.8468 10.0696C49.7765 10.0697 49.7068 10.0557 49.642 10.0284C49.5772 10.0011 49.5186 9.96114 49.4696 9.91082C49.4195 9.86164 49.3796 9.80306 49.3523 9.73846C49.325 9.67386 49.3107 9.60452 49.3104 9.53441L49.1178 5.46217C49.114 5.3649 49.1291 5.26781 49.1623 5.17628C49.1983 5.08438 49.2524 5.00066 49.3215 4.93011C49.3892 4.86199 49.4698 4.808 49.5587 4.77129C49.6484 4.73161 49.7455 4.71105 49.8436 4.71094C49.9415 4.71089 50.0384 4.73033 50.1286 4.76811C50.2188 4.80393 50.3007 4.85801 50.369 4.92694C50.4373 4.9974 50.4903 5.08114 50.5249 5.17294C50.5594 5.26475 50.5746 5.36266 50.5695 5.46058L50.5743 5.46217Z" fill="#E4EAF1"/>
<path id="Vector_5" d="M41.6831 18.9037C41.3263 18.4943 40.9469 18.1051 40.5465 17.738C37.8124 15.2371 34.2087 13.8983 30.5011 14.006C26.7935 14.1137 23.274 15.6594 20.6903 18.3147C18.1066 20.97 16.6622 24.5257 16.6641 28.2265C16.6659 31.9273 18.1138 35.4816 20.7001 38.1344C23.2864 40.7871 26.8074 42.3293 30.5152 42.4333C34.2229 42.5374 37.8252 41.195 40.5569 38.6915C43.2886 36.188 44.9343 32.7205 45.1446 29.0257C45.3549 25.3308 44.1132 21.6997 41.6831 18.9037ZM30.9016 39.4364C28.0511 39.4366 25.3069 38.3563 23.2245 36.4142C21.1421 34.4721 19.8768 31.8133 19.6849 28.9756C19.4929 26.138 20.3885 23.3336 22.1905 21.13C23.9925 18.9263 26.5662 17.4879 29.3909 17.1059C29.8915 17.0374 30.3963 17.0034 30.9016 17.0042C33.8814 17.008 36.7382 18.1907 38.8452 20.293C40.9523 22.3953 42.1378 25.2456 42.1416 28.2187C42.1423 28.7229 42.1083 29.2265 42.0397 29.726C41.6714 32.4136 40.3406 34.8775 38.2933 36.6624C36.246 38.4473 33.6204 39.4327 30.9016 39.4364Z" fill="#5943BE"/>
<path id="Vector_6" d="M40.4777 29.7217C40.2794 29.7217 40.083 29.6827 39.8998 29.6069C39.7166 29.5312 39.5502 29.4201 39.41 29.2801C39.2699 29.1401 39.1588 28.974 39.083 28.7911C39.0073 28.6082 38.9684 28.4123 38.9686 28.2144C38.9673 26.0802 38.1166 24.0339 36.6035 22.5253C35.0903 21.0168 33.0386 20.1696 30.8996 20.17C30.7013 20.1702 30.5049 20.1314 30.3216 20.0559C30.1383 19.9803 29.9718 19.8694 29.8315 19.7296C29.6912 19.5898 29.5799 19.4237 29.5039 19.2409C29.428 19.0582 29.3889 18.8622 29.3889 18.6644V17.1016C27.3132 17.3821 25.3574 18.2356 23.7419 19.5659C22.1265 20.8963 20.9157 22.6505 20.2461 24.6307C19.5765 26.6109 19.4748 28.7384 19.9523 30.7733C20.4298 32.8081 21.4677 34.6694 22.9488 36.1472C24.43 37.6249 26.2955 38.6604 28.3349 39.1369C30.3744 39.6134 32.5067 39.5118 34.4914 38.8438C36.4762 38.1757 38.2343 36.9676 39.5677 35.3559C40.901 33.7441 41.7565 31.7927 42.0377 29.7217H40.4777ZM34.2265 31.5307C33.4584 32.2927 32.4493 32.7655 31.3711 32.8688C30.2928 32.9721 29.212 32.6993 28.3126 32.097C27.4132 31.4947 26.7508 30.6001 26.4381 29.5653C26.1254 28.5306 26.1818 27.4197 26.5976 26.4218C27.0134 25.4238 27.7629 24.6005 28.7187 24.0918C29.6744 23.5832 30.7773 23.4207 31.8396 23.6321C32.9018 23.8434 33.8579 24.4155 34.545 25.251C35.2322 26.0865 35.6079 27.1337 35.6082 28.2144C35.609 28.8309 35.4872 29.4413 35.2501 30.0106C35.0129 30.5798 34.665 31.0964 34.2265 31.5307Z" fill="white"/>
<path id="Vector_7" d="M35.6083 28.2155C35.6119 29.3053 35.2364 30.3625 34.5459 31.2069C33.8554 32.0513 32.8927 32.6306 31.8219 32.8458C30.7512 33.061 29.6387 32.8989 28.6744 32.3872C27.7101 31.8754 26.9536 31.0456 26.5339 30.0395C26.1143 29.0333 26.0576 27.9131 26.3734 26.8698C26.6892 25.8266 27.358 24.925 28.2657 24.3188C29.1734 23.7127 30.2638 23.4395 31.3509 23.5459C32.4379 23.6524 33.4543 24.1318 34.2266 24.9024C34.665 25.3361 35.0129 25.8521 35.2501 26.4208C35.4873 26.9895 35.609 27.5995 35.6083 28.2155Z" fill="#5943BE"/>
<path id="Vector_8" d="M48.3622 28.2119C48.3609 28.6112 48.2014 28.9939 47.9183 29.2763C47.6353 29.5587 47.2518 29.7179 46.8515 29.7191H40.4842C40.2858 29.7191 40.0895 29.6801 39.9063 29.6044C39.7231 29.5286 39.5567 29.4175 39.4165 29.2776C39.2764 29.1376 39.1652 28.9714 39.0895 28.7885C39.0138 28.6057 38.9749 28.4097 38.9751 28.2119C38.9745 27.1547 38.7651 26.108 38.359 25.1316C37.9529 24.1552 37.358 23.2681 36.6083 22.5211C35.8585 21.7741 34.9686 21.1817 33.9894 20.7779C33.0102 20.374 31.9608 20.1666 30.9013 20.1675C30.703 20.1677 30.5066 20.1289 30.3233 20.0533C30.14 19.9777 29.9735 19.8669 29.8332 19.727C29.6929 19.5872 29.5816 19.4211 29.5056 19.2384C29.4297 19.0556 29.3906 18.8597 29.3906 18.6618V12.3089C29.3906 11.9087 29.5496 11.5248 29.8328 11.2414C30.116 10.958 30.5002 10.7981 30.9013 10.7969C34.9833 10.7959 38.9363 12.2241 42.0712 14.8326C42.4766 15.1693 42.8671 15.524 43.2428 15.8967C44.8639 17.5139 46.1497 19.4338 47.027 21.5469C47.9043 23.6599 48.3558 25.9247 48.3558 28.2119H48.3622Z" fill="#FF6533"/>
</g>
<defs>
<filter id="filter0_d_98_9066" x="0" y="0" width="62.123" height="62" filterUnits="userSpaceOnUse" color-interpolation-filters="sRGB">
<feFlood flood-opacity="0" result="BackgroundImageFix"/>
<feColorMatrix in="SourceAlpha" type="matrix" values="0 0 0 0 0 0 0 0 0 0 0 0 0 0 0 0 0 0 127 0" result="hardAlpha"/>
<feOffset dy="4"/>
<feGaussianBlur stdDeviation="2"/>
<feComposite in2="hardAlpha" operator="out"/>
<feColorMatrix type="matrix" values="0 0 0 0 0 0 0 0 0 0 0 0 0 0 0 0 0 0 0.05 0"/>
<feBlend mode="normal" in2="BackgroundImageFix" result="effect1_dropShadow_98_9066"/>
<feBlend mode="normal" in="SourceGraphic" in2="effect1_dropShadow_98_9066" result="shape"/>
</filter>
</defs>
</svg>
