<svg width="62" height="62" viewBox="0 0 62 62" fill="none" xmlns="http://www.w3.org/2000/svg">
<g id="Group 853" filter="url(#filter0_d_98_9027)">
<path id="Vector" d="M31 53.8777C45.9117 53.8777 58 41.8168 58 26.9389C58 12.0609 45.9117 0 31 0C16.0883 0 4 12.0609 4 26.9389C4 41.8168 16.0883 53.8777 31 53.8777Z" fill="#E4EAF1"/>
<path id="Vector_2" d="M43.0303 12.5156C44.042 12.5156 44.8044 13.197 44.9124 14.0923C44.9577 14.4718 44.8828 14.8558 44.698 15.1905C44.5704 15.4566 44.4883 15.742 44.455 16.0351C44.3236 16.9193 44.5008 17.8217 44.9568 18.5911C45.0799 18.7749 45.1837 18.9709 45.2665 19.1759C45.3454 19.4189 45.3717 19.6758 45.3437 19.9297C45.3157 20.1835 45.2339 20.4286 45.1039 20.6486C44.9739 20.8687 44.7986 21.0587 44.5895 21.2061C44.3805 21.3535 44.1424 21.4549 43.8911 21.5037C43.4818 21.578 43.0592 21.5062 42.6977 21.3008C42.3361 21.0953 42.0586 20.7694 41.9138 20.3802C41.823 20.1484 41.7812 19.9003 41.7911 19.6516C41.8009 19.4029 41.8622 19.159 41.971 18.935C42.11 18.624 42.2036 18.2948 42.2489 17.9573C42.3624 17.2779 42.2815 16.5803 42.0154 15.9448C41.931 15.7332 41.8211 15.5326 41.6882 15.3474C41.4303 14.9817 41.3179 14.5333 41.3731 14.0895C41.4283 13.6457 41.6471 13.2383 41.9868 12.9466C42.2772 12.6917 42.6442 12.5401 43.0303 12.5156ZM43.1447 13.5536C42.9935 13.5523 42.8454 13.5958 42.719 13.6786C42.5927 13.7614 42.4938 13.8797 42.4348 14.0186C42.3759 14.1575 42.3596 14.3107 42.388 14.4588C42.4163 14.6069 42.4881 14.7434 42.5942 14.8508C42.7003 14.9582 42.836 15.0318 42.984 15.0623C43.1321 15.0927 43.2858 15.0787 43.4259 15.0219C43.5659 14.9651 43.6859 14.8682 43.7707 14.7433C43.8555 14.6185 43.9013 14.4713 43.9022 14.3205C43.9041 14.22 43.886 14.1201 43.8488 14.0266C43.8116 13.9332 43.7561 13.8481 43.6856 13.7762C43.615 13.7044 43.5309 13.6473 43.438 13.6083C43.3452 13.5692 43.2454 13.549 43.1447 13.5488V13.5536ZM43.5687 20.4959C43.7209 20.4987 43.8704 20.4561 43.9981 20.3736C44.1258 20.2911 44.226 20.1724 44.2857 20.0328C44.3453 19.8931 44.3619 19.7388 44.3331 19.5898C44.3044 19.4407 44.2316 19.3035 44.1243 19.196C44.0169 19.0884 43.8798 19.0152 43.7305 18.9859C43.5812 18.9566 43.4265 18.9724 43.2863 19.0314C43.146 19.0904 43.0267 19.1898 42.9434 19.3168C42.8602 19.4439 42.8169 19.5929 42.8191 19.7447C42.8199 19.9427 42.8992 20.1323 43.0397 20.2721C43.1801 20.412 43.3703 20.4907 43.5687 20.4911V20.4959Z" fill="#FF6533"/>
<path id="Vector_3" d="M20.4956 33.1194C20.5065 33.3578 20.4579 33.5952 20.3543 33.8103C20.1626 34.2286 20.0475 34.6778 20.0144 35.1366C19.9468 35.8793 20.1057 36.6249 20.4702 37.2759C20.5608 37.4439 20.6926 37.5928 20.7736 37.7624C20.8837 37.997 20.9414 38.2527 20.9425 38.5117C20.9436 38.7708 20.8881 39.027 20.78 39.2625C20.6718 39.498 20.5136 39.7072 20.3162 39.8756C20.1188 40.0439 19.8871 40.1673 19.6371 40.2373C19.3871 40.3073 19.1249 40.3221 18.8685 40.2807C18.6122 40.2393 18.368 40.1428 18.1529 39.9977C17.9377 39.8527 17.7568 39.6627 17.6227 39.4408C17.4886 39.219 17.4046 38.9707 17.3764 38.7132C17.3394 38.3462 17.4112 37.9765 17.5828 37.6499C17.7108 37.3811 17.796 37.094 17.8354 36.7989C17.9735 35.9053 17.7942 34.9917 17.3287 34.216C17.2296 34.0753 17.143 33.9263 17.0698 33.7707C16.8252 33.0845 16.911 32.4507 17.4002 31.9008C17.6329 31.6343 17.9407 31.4439 18.2835 31.3543C18.6263 31.2647 18.9881 31.2802 19.3219 31.3987C19.6557 31.5172 19.9461 31.7332 20.1551 32.0186C20.3642 32.304 20.4823 32.6456 20.4941 32.999C20.4972 33.0307 20.4956 33.0719 20.4956 33.1194ZM19.5141 33.0956C19.5128 32.9473 19.4677 32.8026 19.3845 32.6796C19.3012 32.5567 19.1834 32.461 19.0459 32.4046C18.9084 32.3481 18.7573 32.3333 18.6114 32.3621C18.4655 32.3909 18.3314 32.462 18.2258 32.5665C18.1202 32.671 18.0478 32.8042 18.0178 32.9495C17.9877 33.0948 18.0012 33.2457 18.0567 33.3834C18.1122 33.5211 18.2071 33.6393 18.3296 33.7235C18.4521 33.8076 18.5967 33.8538 18.7454 33.8563C18.8474 33.8596 18.949 33.8419 19.0438 33.8045C19.1387 33.767 19.2249 33.7105 19.2969 33.6384C19.369 33.5664 19.4255 33.4803 19.4628 33.3856C19.5002 33.2908 19.5177 33.1894 19.5141 33.0877V33.0956ZM19.1584 37.745C19.0074 37.7419 18.8589 37.7835 18.7316 37.8646C18.6043 37.9456 18.504 38.0625 18.4432 38.2005C18.3825 38.3384 18.3641 38.4912 18.3904 38.6396C18.4167 38.788 18.4864 38.9253 18.5908 39.0341C18.6953 39.1429 18.8297 39.2184 18.9771 39.2511C19.1245 39.2838 19.2783 39.2721 19.4191 39.2176C19.5599 39.163 19.6813 39.0681 19.768 38.9448C19.8548 38.8214 19.9029 38.6752 19.9064 38.5246C19.91 38.4237 19.8934 38.323 19.8576 38.2285C19.8218 38.1341 19.7675 38.0476 19.6979 37.9743C19.6282 37.901 19.5447 37.8423 19.452 37.8015C19.3594 37.7608 19.2596 37.7389 19.1584 37.737V37.745Z" fill="#5943BE"/>
<path id="Vector_4" d="M24.6021 25.4245C24.5972 25.0061 24.7385 24.599 25.0016 24.2731C25.2648 23.9472 25.6334 23.7229 26.0442 23.6387C26.3139 23.5668 26.5699 23.4512 26.8018 23.2964C27.3386 22.975 27.782 22.5195 28.0883 21.9748L28.1185 21.9241C28.1296 21.9082 28.136 21.8813 28.1582 21.8829C28.1804 21.8845 28.1852 21.9162 28.1884 21.9383C28.2406 22.2188 28.3527 22.4847 28.5171 22.718C28.8196 23.1642 29.2845 23.4751 29.8131 23.5848C29.8354 23.5848 29.8671 23.5848 29.8735 23.6101C29.8798 23.6355 29.8449 23.6498 29.8242 23.6608C29.4291 23.8853 29.0787 24.1801 28.7903 24.5308C28.4687 24.9155 28.236 25.3662 28.1089 25.8508C28.01 26.2547 27.772 26.611 27.4366 26.8577C27.1012 27.1044 26.6896 27.2258 26.2737 27.2007C25.8578 27.1756 25.4639 27.0057 25.1607 26.7204C24.8575 26.4352 24.6643 26.0529 24.6148 25.6401C24.6042 25.5687 24.5999 25.4966 24.6021 25.4245ZM26.3682 24.6417C26.2673 24.645 26.168 24.6681 26.0759 24.7097C25.9839 24.7513 25.901 24.8106 25.832 24.8842C25.763 24.9578 25.7092 25.0442 25.6736 25.1386C25.6381 25.2329 25.6216 25.3333 25.6249 25.4341C25.6272 25.5335 25.6491 25.6314 25.6894 25.7224C25.7297 25.8133 25.7876 25.8955 25.8597 25.9641C25.9318 26.0327 26.0168 26.0864 26.1098 26.1221C26.2028 26.1579 26.302 26.175 26.4016 26.1725C26.5985 26.1603 26.7831 26.0726 26.9167 25.9277C27.0502 25.7828 27.1224 25.5919 27.1181 25.3951C27.1138 25.1983 27.0333 25.0107 26.8936 24.8718C26.7538 24.7328 26.5655 24.6532 26.3682 24.6497V24.6417Z" fill="#5943BE"/>
<path id="Vector_5" d="M36.1484 32.7346H36.1357C36.0508 32.7364 35.9688 32.7659 35.9022 32.8186C35.6796 32.993 35.4377 33.1413 35.1811 33.2607L35.0446 33.3257C34.9588 33.3676 34.8681 33.3984 34.7746 33.4176C34.3273 33.5062 33.9306 33.7611 33.6649 34.1308C33.3991 34.5004 33.2841 34.957 33.3433 35.4081C33.4025 35.8592 33.6314 36.2709 33.9836 36.5598C34.3358 36.8487 34.7849 36.9932 35.2399 36.964C35.5716 36.9453 35.891 36.8326 36.1608 36.6393C36.4305 36.4459 36.6394 36.1798 36.763 35.8722C36.8297 35.7264 36.8377 35.5632 36.8933 35.4158C36.9203 35.3413 36.9504 35.2668 36.9822 35.1939C37.107 34.906 37.267 34.6345 37.4587 34.3858C37.508 34.3206 37.5368 34.2423 37.5413 34.1608C37.5413 34.1132 37.5413 34.0641 37.5413 34.015C37.5185 33.6639 37.3611 33.335 37.1017 33.0966C36.8424 32.8582 36.501 32.7285 36.1484 32.7346ZM35.1462 35.9039C34.9498 35.8949 34.7645 35.8108 34.6287 35.669C34.4929 35.5272 34.4171 35.3386 34.4171 35.1424C34.4171 34.9463 34.4929 34.7577 34.6287 34.6159C34.7645 34.4741 34.9498 34.39 35.1462 34.381C35.2467 34.3793 35.3466 34.3978 35.4397 34.4354C35.5329 34.4731 35.6175 34.5291 35.6886 34.6001C35.7596 34.6711 35.8155 34.7556 35.853 34.8487C35.8906 34.9417 35.9089 35.0414 35.907 35.1416C35.9076 35.2375 35.8904 35.3326 35.8561 35.4221C35.8022 35.5659 35.705 35.6894 35.5779 35.776C35.4508 35.8625 35.3 35.9077 35.1462 35.9054V35.9039Z" fill="#5943BE"/>
<path id="Vector_6" d="M27.933 36.8062C27.6154 37.711 27.8076 38.497 28.4873 39.1831C28.2705 39.1777 28.0535 39.1862 27.8378 39.2085C27.1434 39.2938 26.4872 39.5729 25.9446 40.0135C25.908 40.042 25.8779 40.0785 25.8445 40.1101C25.651 40.3041 25.4153 40.4509 25.1557 40.5391C24.8961 40.6274 24.6195 40.6547 24.3476 40.619C24.0757 40.5833 23.8157 40.4855 23.5878 40.3332C23.3599 40.1808 23.1703 39.9782 23.0338 39.7409C22.8972 39.5035 22.8173 39.238 22.8003 38.9649C22.7833 38.6917 22.8297 38.4184 22.9358 38.1661C23.042 37.9137 23.205 37.6892 23.4122 37.51C23.6195 37.3307 23.8654 37.2016 24.1308 37.1326C24.4609 37.0402 24.8112 37.049 25.1362 37.158C25.5283 37.2716 25.938 37.3119 26.3448 37.2768C26.8789 37.2401 27.398 37.0852 27.8648 36.8236C27.8741 36.8159 27.8851 36.8103 27.8969 36.8073C27.9087 36.8042 27.9211 36.8039 27.933 36.8062ZM25.1933 39.2972C25.2715 39.1707 25.3105 39.024 25.3053 38.8754C25.3002 38.7269 25.2512 38.5832 25.1645 38.4623C25.0778 38.3415 24.9572 38.2489 24.818 38.1962C24.6787 38.1435 24.5269 38.133 24.3817 38.166C24.2364 38.1991 24.1042 38.2742 24.0016 38.3819C23.8991 38.4897 23.8307 38.6253 23.8051 38.7717C23.7794 38.9181 23.7977 39.0688 23.8577 39.2049C23.9176 39.341 24.0165 39.4563 24.1419 39.5365C24.2265 39.5903 24.321 39.6269 24.4198 39.644C24.5187 39.6611 24.6199 39.6584 24.7178 39.6361C24.8156 39.6139 24.908 39.5725 24.9896 39.5143C25.0713 39.4561 25.1405 39.3823 25.1933 39.2972Z" fill="#5943BE"/>
<path id="Vector_7" d="M37.7726 12.0938C38.1559 12.0969 38.5289 12.2187 38.8399 12.4424C39.2446 12.7036 39.6968 12.8829 40.1708 12.9701C40.5838 13.0527 41.0083 13.0603 41.4239 12.9922C41.4509 12.9922 41.4875 12.9653 41.5065 12.9922C41.5256 13.0192 41.4891 13.0382 41.4748 13.0588C41.1824 13.4407 41.034 13.913 41.0555 14.3931C41.0703 14.6915 41.1459 14.9837 41.2778 15.2519C41.2921 15.2789 41.3271 15.3106 41.3032 15.3407C41.2794 15.3708 41.2413 15.3407 41.2111 15.3296C40.3763 15.0752 39.4793 15.1143 38.6699 15.4405C38.5238 15.4944 38.3904 15.5768 38.2395 15.618C37.8127 15.7336 37.3579 15.6851 36.9652 15.482C36.5725 15.2789 36.2706 14.9361 36.1192 14.5214C36.0312 14.2923 35.9912 14.0477 36.0016 13.8026C36.012 13.5575 36.0727 13.3171 36.1799 13.0963C36.287 12.8755 36.4384 12.6789 36.6246 12.5188C36.8109 12.3586 37.0281 12.2382 37.2628 12.1651C37.3574 12.1363 37.454 12.1146 37.5518 12.1001C37.6185 12.0953 37.6964 12.0985 37.7726 12.0938ZM37.0754 13.859C37.0739 13.9599 37.0924 14.0602 37.1299 14.1539C37.1674 14.2476 37.2231 14.333 37.2938 14.4052C37.3645 14.4773 37.4489 14.5349 37.5419 14.5744C37.635 14.6139 37.735 14.6347 37.8361 14.6355C38.0384 14.6306 38.2308 14.5472 38.3725 14.4032C38.5142 14.2591 38.5941 14.0657 38.5953 13.8638C38.5945 13.6633 38.5148 13.471 38.3734 13.3285C38.2321 13.186 38.0403 13.1045 37.8393 13.1016C37.7391 13.1005 37.6397 13.1194 37.5468 13.157C37.454 13.1946 37.3695 13.2503 37.2985 13.3208C37.2274 13.3913 37.171 13.4752 37.1327 13.5676C37.0944 13.66 37.0749 13.759 37.0754 13.859Z" fill="#5943BE"/>
<path id="Vector_8" d="M20.8206 29.2143C20.8161 28.8094 20.9501 28.4151 21.2004 28.0965C21.4508 27.7779 21.8025 27.5539 22.1976 27.4617C22.8352 27.2902 23.4063 26.9313 23.8367 26.4317C24.0009 26.2589 24.1448 26.0681 24.2655 25.8628C24.2782 25.8406 24.2862 25.8057 24.3179 25.8136C24.3497 25.8216 24.3418 25.8501 24.3465 25.8723C24.4609 26.4062 24.7831 26.873 25.2423 27.1701C25.4433 27.3052 25.668 27.4014 25.9046 27.4537C25.93 27.4537 25.9665 27.4537 25.9729 27.4839C25.9792 27.514 25.9395 27.5282 25.9157 27.5425C25.2177 27.9757 24.6828 28.6269 24.3942 29.3949C24.3243 29.574 24.3148 29.7705 24.2354 29.9448C24.0773 30.3057 23.8037 30.604 23.4573 30.7929C23.111 30.9818 22.7116 31.0507 22.3219 30.9887C21.9321 30.9267 21.5739 30.7373 21.3037 30.4503C21.0334 30.1633 20.8663 29.7949 20.8286 29.4028C20.822 29.3402 20.8193 29.2772 20.8206 29.2143ZM22.5677 29.9987C22.6673 30.0002 22.7662 29.9817 22.8585 29.9443C22.9509 29.9069 23.0347 29.8514 23.1051 29.781C23.1755 29.7106 23.2309 29.6269 23.2682 29.5347C23.3055 29.4425 23.3238 29.3438 23.3221 29.2444C23.3221 29.146 23.3027 29.0485 23.2649 28.9576C23.2272 28.8666 23.1718 28.784 23.1021 28.7144C23.0323 28.6448 22.9495 28.5896 22.8584 28.5519C22.7672 28.5142 22.6695 28.4949 22.5709 28.4949C22.4722 28.4949 22.3745 28.5142 22.2834 28.5519C22.1923 28.5896 22.1094 28.6448 22.0397 28.7144C21.9699 28.784 21.9146 28.8666 21.8768 28.9576C21.8391 29.0485 21.8196 29.146 21.8196 29.2444C21.8175 29.3434 21.8353 29.4417 21.8721 29.5337C21.9088 29.6257 21.9637 29.7093 22.0335 29.7797C22.1033 29.85 22.1865 29.9057 22.2783 29.9433C22.3701 29.9809 22.4685 29.9998 22.5677 29.9987Z" fill="#5943BE"/>
<path id="Vector_9" d="M28.4613 21.5306C28.4557 21.1186 28.5938 20.7174 28.852 20.3957C29.1101 20.074 29.4722 19.8517 29.8764 19.7669C30.1648 19.6889 30.4384 19.5641 30.6864 19.3977C31.1832 19.0938 31.6003 18.676 31.903 18.1791C31.9189 18.1537 31.9284 18.1078 31.9681 18.1189C32.0078 18.13 31.9871 18.1696 31.9951 18.1981C32.0808 18.5763 32.2713 18.9228 32.5448 19.1982C32.8183 19.4736 33.1638 19.6668 33.542 19.7558C33.569 19.7637 33.6135 19.7558 33.6199 19.7859C33.6262 19.816 33.5817 19.8335 33.5563 19.8493C32.8467 20.2944 32.3071 20.9639 32.0237 21.7509C31.9776 21.8761 31.9601 22.0139 31.9109 22.1391C31.8036 22.4511 31.609 22.7259 31.35 22.9309C31.091 23.1359 30.7786 23.2626 30.4497 23.2959C30.0248 23.3498 29.5947 23.2474 29.2399 23.008C28.8851 22.7686 28.6297 22.4085 28.5216 21.9949C28.4784 21.844 28.4581 21.6875 28.4613 21.5306ZM30.9532 21.5671C30.9542 21.4682 30.9358 21.3701 30.8988 21.2784C30.8619 21.1867 30.8072 21.1031 30.7379 21.0325C30.6685 20.9619 30.586 20.9055 30.4948 20.8668C30.4037 20.828 30.3058 20.8075 30.2067 20.8064C30.1077 20.8054 30.0094 20.8238 29.9174 20.8607C29.8255 20.8976 29.7417 20.9521 29.671 21.0213C29.6002 21.0904 29.5437 21.1728 29.5048 21.2638C29.466 21.3547 29.4454 21.4524 29.4444 21.5512C29.4433 21.6501 29.4618 21.7481 29.4988 21.8399C29.5357 21.9316 29.5904 22.0151 29.6597 22.0858C29.729 22.1564 29.8116 22.2127 29.9028 22.2515C29.9939 22.2903 30.0918 22.3108 30.1909 22.3118C30.2899 22.3129 30.3882 22.2944 30.4802 22.2576C30.5721 22.2207 30.6558 22.1661 30.7266 22.097C30.7974 22.0278 30.8539 21.9454 30.8927 21.8545C30.9316 21.7636 30.9522 21.6659 30.9532 21.5671Z" fill="#5943BE"/>
<path id="Vector_10" d="M29.4567 39.2369C29.0511 39.099 28.71 38.8181 28.4974 38.4469C28.2847 38.0758 28.2153 37.6399 28.3021 37.2213C28.3856 36.7728 28.6367 36.3727 29.0047 36.102C29.3727 35.8313 29.8301 35.7103 30.2842 35.7634C30.7361 35.7916 31.1888 35.7207 31.6103 35.5558C32.0113 35.4141 32.3839 35.2027 32.711 34.9315C32.7316 34.914 32.7507 34.876 32.7841 34.8966C32.8174 34.9172 32.792 34.9473 32.7841 34.9711C32.7228 35.5099 32.875 36.0512 33.2081 36.4796C33.3533 36.6655 33.5282 36.8261 33.7259 36.955C33.7513 36.9725 33.8005 36.9788 33.7894 37.02C33.7783 37.0612 33.7338 37.0485 33.7036 37.0564C33.2048 37.1679 32.7354 37.384 32.3266 37.6903C32.0109 37.9266 31.7366 38.2137 31.5151 38.5397C31.3014 38.8708 30.9816 39.12 30.6078 39.2466C30.234 39.3732 29.8283 39.3698 29.4567 39.2369ZM30.2937 36.833C30.1999 36.8011 30.1006 36.788 30.0017 36.7947C29.9028 36.8014 29.8062 36.8276 29.7176 36.8718C29.6289 36.916 29.5499 36.9774 29.4852 37.0524C29.4205 37.1273 29.3714 37.2144 29.3408 37.3084C29.3068 37.4018 29.2918 37.5011 29.2967 37.6003C29.3015 37.6996 29.3261 37.7969 29.369 37.8865C29.4119 37.9762 29.4722 38.0565 29.5465 38.1227C29.6208 38.1889 29.7075 38.2397 29.8016 38.2722C29.8958 38.3047 29.9954 38.3181 30.0948 38.3118C30.1942 38.3055 30.2914 38.2795 30.3806 38.2354C30.4698 38.1913 30.5494 38.1299 30.6146 38.0548C30.6799 37.9797 30.7295 37.8925 30.7606 37.7981C30.7953 37.7042 30.8107 37.6044 30.8059 37.5045C30.801 37.4046 30.7761 37.3067 30.7325 37.2166C30.6889 37.1266 30.6276 37.0462 30.5522 36.9803C30.4768 36.9144 30.3889 36.8643 30.2937 36.833Z" fill="#5943BE"/>
<path id="Vector_11" d="M32.2344 17.7051C32.2354 17.2911 32.3787 16.8898 32.6402 16.5684C32.9018 16.2469 33.2658 16.0245 33.6717 15.9383C33.9371 15.8658 34.1895 15.7525 34.4198 15.6023C34.9253 15.301 35.3499 14.8818 35.657 14.3806C35.6697 14.3615 35.6793 14.333 35.7047 14.3362C35.7301 14.3393 35.7348 14.3742 35.7412 14.3996C35.8374 14.7773 36.0369 15.121 36.3173 15.3924C36.5977 15.6638 36.9481 15.8522 37.3294 15.9367C37.3548 15.9367 37.3993 15.9367 37.4057 15.9668C37.412 15.9969 37.3691 16.0096 37.3469 16.0238C36.6261 16.4725 36.08 17.1526 35.7984 17.9523C35.7714 18.0268 35.7603 18.1108 35.7396 18.1821C35.6325 18.577 35.392 18.9229 35.0588 19.1613C34.7256 19.3998 34.3201 19.5162 33.9108 19.4908C33.5016 19.4655 33.1136 19.3 32.8125 19.0223C32.5114 18.7446 32.3156 18.3717 32.2582 17.9666C32.2423 17.8715 32.2407 17.7764 32.2344 17.7051ZM34.7644 17.7447C34.7754 17.5462 34.7068 17.3514 34.5738 17.2032C34.4408 17.0551 34.2543 16.9657 34.0553 16.9548C33.8563 16.9439 33.661 17.0123 33.5126 17.145C33.3641 17.2777 33.2745 17.4638 33.2636 17.6623C33.2581 17.7607 33.2722 17.8591 33.3049 17.952C33.3376 18.0449 33.3883 18.1305 33.4542 18.2038C33.52 18.2772 33.5997 18.3369 33.6887 18.3795C33.7776 18.4221 33.8742 18.4469 33.9727 18.4523C34.0712 18.4577 34.1699 18.4437 34.263 18.4111C34.3561 18.3784 34.4419 18.3278 34.5154 18.2621C34.589 18.1964 34.6488 18.1169 34.6915 18.0281C34.7342 17.9394 34.759 17.8431 34.7644 17.7447Z" fill="#5943BE"/>
<path id="Vector_12" d="M37.7 23.8984C37.7277 23.9253 37.7447 23.9614 37.7476 23.9999C37.8319 24.38 38.0224 24.7285 38.297 25.005C38.5716 25.2815 38.9192 25.4748 39.2993 25.5623C39.3295 25.5702 39.3772 25.5623 39.3803 25.6019C39.3835 25.6415 39.3406 25.6431 39.3168 25.659C38.7487 26.0039 38.2858 26.497 37.9779 27.0851C37.8619 27.2965 37.7748 27.5225 37.7191 27.757C37.6211 28.1711 37.3771 28.5363 37.0317 28.7859C36.6863 29.0354 36.2625 29.1527 35.8376 29.1164C35.4127 29.0801 35.0151 28.8925 34.7173 28.588C34.4195 28.2835 34.2413 27.8822 34.2154 27.4575C34.1895 27.0894 34.2767 26.7222 34.4654 26.4048C34.6541 26.0874 34.9354 25.835 35.2716 25.6812C35.3506 25.6471 35.4324 25.6201 35.5162 25.6003C36.2054 25.4148 36.8215 25.0239 37.2823 24.48C37.4394 24.2996 37.5792 24.1049 37.7 23.8984ZM35.9926 28.0914C36.1432 28.0932 36.2909 28.0506 36.4172 27.9689C36.5436 27.8873 36.6429 27.7702 36.7028 27.6324C36.7626 27.4946 36.7804 27.3422 36.7537 27.1944C36.7271 27.0465 36.6573 26.9099 36.5531 26.8015C36.4488 26.6931 36.3148 26.6179 36.1679 26.5852C36.021 26.5526 35.8676 26.564 35.7272 26.618C35.5867 26.672 35.4653 26.7662 35.3784 26.8888C35.2914 27.0114 35.2426 27.1569 35.2382 27.307C35.2323 27.4089 35.2475 27.5109 35.2829 27.6066C35.3183 27.7023 35.3732 27.7897 35.444 27.8634C35.5148 27.937 35.6001 27.9952 35.6945 28.0345C35.7889 28.0737 35.8904 28.0931 35.9926 28.0914Z" fill="#5943BE"/>
<path id="Vector_13" d="M41.5086 20.0938C41.5419 20.2158 41.5689 20.3362 41.6134 20.4519C41.7248 20.763 41.9088 21.0432 42.1502 21.2694C42.3915 21.4956 42.6833 21.6613 43.0015 21.7529C43.0444 21.7655 43.1143 21.7529 43.119 21.8052C43.1238 21.8575 43.0571 21.8638 43.019 21.8876C42.3372 22.337 41.8222 22.9972 41.553 23.7669C41.5293 23.8456 41.5097 23.9255 41.4943 24.0062C41.4046 24.3094 41.2357 24.5832 41.0048 24.7996C40.774 25.016 40.4895 25.1672 40.1807 25.2375C39.8719 25.3079 39.5499 25.2949 39.2477 25.2C38.9456 25.105 38.6743 24.9315 38.4616 24.6972C38.249 24.463 38.1027 24.1765 38.0378 23.8671C37.9729 23.5578 37.9918 23.2368 38.0925 22.9371C38.1931 22.6374 38.372 22.3699 38.6106 22.1621C38.8492 21.9542 39.139 21.8135 39.4502 21.7544C39.6987 21.6936 39.9343 21.5889 40.1459 21.4454C40.6742 21.1364 41.1169 20.7006 41.4339 20.1777C41.4514 20.1445 41.4625 20.1112 41.5086 20.0938ZM39.8044 24.2423C40.0052 24.2436 40.1983 24.1654 40.3415 24.025C40.4847 23.8845 40.5662 23.6931 40.5683 23.4928C40.5683 23.2919 40.4883 23.0992 40.346 22.9572C40.2036 22.8151 40.0105 22.7353 39.8092 22.7353C39.6078 22.7353 39.4147 22.8151 39.2723 22.9572C39.13 23.0992 39.05 23.2919 39.05 23.4928C39.0541 23.6909 39.135 23.8796 39.2756 24.0194C39.4163 24.1592 39.6059 24.2391 39.8044 24.2423Z" fill="#5943BE"/>
<path id="Vector_14" d="M20.7798 32.7267C20.5813 31.833 20.0365 31.2593 19.1328 31.0074C19.2859 30.9094 19.4338 30.8036 19.5759 30.6904C19.9209 30.4101 20.2135 30.0711 20.4399 29.6889C20.4606 29.6541 20.4733 29.5907 20.5162 29.5939C20.559 29.597 20.5495 29.6652 20.559 29.7032C20.649 30.0875 20.8457 30.4387 21.1266 30.7165C21.4076 30.9943 21.7613 31.1874 22.1473 31.2736C22.1743 31.2736 22.2156 31.2736 22.2188 31.31C22.2219 31.3465 22.1838 31.3465 22.1616 31.3592C21.6143 31.6799 21.157 32.1334 20.8322 32.6776C20.8322 32.6966 20.8163 32.7204 20.7798 32.7267Z" fill="#5943BE"/>
<path id="Vector_15" d="M22.7161 40.0125C22.4051 39.902 22.082 39.8286 21.7536 39.7939C21.4214 39.7674 21.0871 39.7802 20.7578 39.8319C20.8382 39.7318 20.9109 39.6259 20.9754 39.515C21.141 39.2156 21.2309 38.8805 21.2373 38.5386C21.2436 38.1967 21.1663 37.8585 21.0119 37.5532C20.9992 37.5262 20.9595 37.4961 20.9849 37.466C21.0103 37.4359 21.0469 37.466 21.0755 37.4803C21.4136 37.5882 21.7656 37.6464 22.1205 37.653C22.3386 37.6572 22.5567 37.6408 22.7717 37.6039C22.7971 37.6039 22.8289 37.5785 22.8463 37.6039C22.8638 37.6292 22.832 37.6562 22.8162 37.6784C22.585 38 22.4497 38.3803 22.4259 38.7753C22.402 39.1704 22.4905 39.5641 22.6812 39.9111C22.7027 39.9407 22.7149 39.976 22.7161 40.0125Z" fill="#5943BE"/>
<path id="Vector_16" d="M43.1528 13.8594C43.2712 13.8626 43.3838 13.9115 43.467 13.9956C43.5501 14.0798 43.5975 14.1928 43.5991 14.311C43.5938 14.4261 43.5446 14.5349 43.4616 14.615C43.3785 14.6951 43.268 14.7406 43.1525 14.742C43.037 14.7434 42.9253 14.7007 42.8403 14.6226C42.7553 14.5446 42.7035 14.4371 42.6954 14.3221C42.6945 14.2616 42.7057 14.2016 42.7283 14.1455C42.7509 14.0894 42.7845 14.0383 42.8271 13.9953C42.8696 13.9522 42.9203 13.918 42.9762 13.8947C43.0322 13.8714 43.0922 13.8594 43.1528 13.8594Z" fill="#5943BE"/>
<path id="Vector_17" d="M43.1329 19.7263C43.1357 19.6394 43.164 19.5552 43.2143 19.4843C43.2647 19.4133 43.3348 19.3587 43.416 19.3271C43.4972 19.2956 43.5858 19.2885 43.671 19.3068C43.7562 19.3251 43.8341 19.368 43.8951 19.4301C43.956 19.4923 43.9974 19.5709 44.0139 19.6562C44.0305 19.7416 44.0216 19.8299 43.9883 19.9102C43.9549 19.9905 43.8987 20.0593 43.8265 20.1081C43.7544 20.1568 43.6695 20.1833 43.5823 20.1842C43.5226 20.1838 43.4636 20.1716 43.4086 20.1484C43.3536 20.1251 43.3038 20.0912 43.2621 20.0486C43.2203 20.006 43.1873 19.9556 43.1652 19.9003C43.143 19.845 43.132 19.7859 43.1329 19.7263Z" fill="#5943BE"/>
<path id="Vector_18" d="M19.2008 33.0924C19.2012 33.1511 19.1899 33.2093 19.1675 33.2636C19.1452 33.3179 19.1122 33.3673 19.0705 33.4087C19.0288 33.4502 18.9792 33.4829 18.9247 33.5051C18.8702 33.5272 18.8118 33.5383 18.7529 33.5376C18.694 33.5366 18.6358 33.524 18.5817 33.5005C18.5277 33.4769 18.4788 33.443 18.4379 33.4006C18.3971 33.3582 18.365 33.3082 18.3435 33.2534C18.3221 33.1986 18.3117 33.1401 18.313 33.0813C18.3102 33.0209 18.3198 32.9606 18.3412 32.904C18.3626 32.8475 18.3954 32.7959 18.4375 32.7524C18.4797 32.709 18.5302 32.6746 18.5862 32.6513C18.6421 32.6281 18.7022 32.6165 18.7628 32.6172C18.8234 32.618 18.8831 32.6311 18.9385 32.6557C18.9938 32.6804 19.0435 32.716 19.0845 32.7605C19.1255 32.805 19.157 32.8574 19.177 32.9144C19.197 32.9715 19.2051 33.0321 19.2008 33.0924Z" fill="#5943BE"/>
<path id="Vector_19" d="M19.1593 38.0492C19.2774 38.0553 19.3887 38.1064 19.4703 38.1919C19.5518 38.2773 19.5974 38.3908 19.5977 38.5088C19.5952 38.6257 19.5476 38.7372 19.4647 38.8198C19.3818 38.9025 19.2701 38.9501 19.153 38.9525C19.0912 38.9561 19.0293 38.9472 18.9711 38.9261C18.9129 38.905 18.8596 38.8722 18.8146 38.8299C18.7695 38.7875 18.7336 38.7364 18.7091 38.6797C18.6845 38.623 18.6719 38.5619 18.6719 38.5001C18.6719 38.4383 18.6845 38.3772 18.7091 38.3205C18.7336 38.2638 18.7695 38.2126 18.8146 38.1703C18.8596 38.1279 18.9129 38.0952 18.9711 38.0741C19.0293 38.053 19.0912 38.044 19.153 38.0477L19.1593 38.0492Z" fill="#5943BE"/>
<path id="Vector_20" d="M26.3712 24.9531C26.4864 24.9599 26.5946 25.0104 26.6738 25.0942C26.7529 25.178 26.797 25.2888 26.797 25.404C26.797 25.5191 26.7529 25.6299 26.6738 25.7137C26.5946 25.7975 26.4864 25.848 26.3712 25.8548C26.256 25.848 26.1477 25.7975 26.0686 25.7137C25.9894 25.6299 25.9453 25.5191 25.9453 25.404C25.9453 25.2888 25.9894 25.178 26.0686 25.0942C26.1477 25.0104 26.256 24.9599 26.3712 24.9531Z" fill="#5943BE"/>
<path id="Vector_21" d="M35.6038 35.1468C35.6026 35.2652 35.5557 35.3785 35.4729 35.4633C35.39 35.548 35.2776 35.5975 35.1591 35.6016C35.0689 35.6035 34.9802 35.5786 34.9043 35.53C34.8284 35.4815 34.7687 35.4114 34.7328 35.3289C34.697 35.2464 34.6865 35.155 34.7028 35.0666C34.7191 34.9781 34.7614 34.8964 34.8244 34.832C34.8874 34.7676 34.9681 34.7234 35.0564 34.7049C35.1447 34.6865 35.2364 34.6947 35.32 34.7284C35.4036 34.7622 35.4752 34.82 35.5257 34.8945C35.5763 34.969 35.6034 35.0569 35.6038 35.1468Z" fill="#5943BE"/>
<path id="Vector_22" d="M24.3163 39.2685C24.2645 39.2401 24.2194 39.2009 24.184 39.1536C24.1486 39.1064 24.1238 39.0521 24.1111 38.9945C24.0985 38.9368 24.0984 38.8772 24.1108 38.8195C24.1231 38.7618 24.1477 38.7074 24.1829 38.66C24.2132 38.6085 24.2538 38.5637 24.3022 38.5286C24.3505 38.4934 24.4057 38.4686 24.4641 38.4556C24.5225 38.4427 24.583 38.4419 24.6418 38.4534C24.7005 38.4648 24.7563 38.4882 24.8055 38.5221C24.9023 38.5884 24.9693 38.6897 24.9925 38.8045C25.0156 38.9193 24.993 39.0385 24.9294 39.137C24.8995 39.1877 24.8595 39.2317 24.8117 39.2661C24.7639 39.3006 24.7095 39.3247 24.6518 39.3371C24.5942 39.3495 24.5346 39.3498 24.4769 39.3379C24.4191 39.3261 24.3645 39.3025 24.3163 39.2685Z" fill="#5943BE"/>
<path id="Vector_23" d="M37.8258 14.3111C37.7102 14.3043 37.6016 14.2536 37.5221 14.1695C37.4427 14.0854 37.3984 13.9742 37.3984 13.8587C37.3984 13.7431 37.4427 13.6319 37.5221 13.5478C37.6016 13.4637 37.7102 13.4131 37.8258 13.4062C37.9459 13.4087 38.0603 13.4577 38.1448 13.5429C38.2293 13.6281 38.2773 13.7428 38.2785 13.8626C38.2768 13.9816 38.2285 14.0952 38.1439 14.179C38.0593 14.2629 37.9451 14.3103 37.8258 14.3111Z" fill="#5943BE"/>
<path id="Vector_24" d="M22.5699 29.6862C22.5111 29.6882 22.4525 29.6781 22.3978 29.6566C22.343 29.6351 22.2933 29.6026 22.2516 29.5612C22.2099 29.5198 22.1772 29.4703 22.1555 29.4157C22.1337 29.3612 22.1234 29.3028 22.1252 29.2441C22.1218 29.1271 22.165 29.0135 22.2454 28.9282C22.3258 28.843 22.4368 28.793 22.554 28.7893C22.6147 28.7873 22.6751 28.7977 22.7317 28.8198C22.7882 28.8419 22.8397 28.8752 22.8829 28.9178C22.9261 28.9603 22.9602 29.0112 22.9831 29.0673C23.0061 29.1234 23.0173 29.1835 23.0162 29.2441C23.0177 29.3028 23.0072 29.3613 22.9853 29.4158C22.9634 29.4704 22.9305 29.5199 22.8887 29.5613C22.8469 29.6027 22.7971 29.6351 22.7423 29.6566C22.6874 29.6781 22.6288 29.6882 22.5699 29.6862Z" fill="#5943BE"/>
<path id="Vector_25" d="M30.1947 22.0126C30.136 22.0126 30.078 22.001 30.0238 21.9785C29.9696 21.956 29.9205 21.9231 29.8791 21.8815C29.8378 21.84 29.8051 21.7907 29.7829 21.7365C29.7608 21.6823 29.7496 21.6243 29.75 21.5657C29.7515 21.4476 29.7983 21.3345 29.8806 21.2497C29.963 21.1648 30.0748 21.1146 30.1931 21.1094C30.3116 21.1143 30.424 21.1632 30.5083 21.2464C30.5926 21.3297 30.6427 21.4413 30.649 21.5594C30.6477 21.6792 30.5995 21.7938 30.5145 21.8785C30.4296 21.9632 30.3148 22.0114 30.1947 22.0126Z" fill="#5943BE"/>
<path id="Vector_26" d="M30.4646 37.6909C30.4475 37.7479 30.4192 37.8008 30.3812 37.8467C30.3432 37.8925 30.2964 37.9302 30.2436 37.9576C30.1907 37.985 30.1329 38.0016 30.0735 38.0062C30.0141 38.0109 29.9543 38.0036 29.8978 37.9849C29.8413 37.9661 29.7892 37.9361 29.7445 37.8968C29.6998 37.8575 29.6634 37.8097 29.6376 37.7561C29.6118 37.7025 29.5971 37.6443 29.5942 37.5849C29.5914 37.5256 29.6006 37.4662 29.6212 37.4104C29.6383 37.3535 29.6666 37.3005 29.7046 37.2547C29.7425 37.2089 29.7893 37.1712 29.8422 37.1438C29.8951 37.1164 29.9529 37.0998 30.0123 37.0951C30.0717 37.0904 30.1314 37.0977 30.1879 37.1165C30.2444 37.1353 30.2966 37.1653 30.3413 37.2046C30.386 37.2439 30.4223 37.2917 30.4481 37.3453C30.4739 37.3989 30.4887 37.4571 30.4915 37.5164C30.4943 37.5758 30.4852 37.6352 30.4646 37.6909Z" fill="#5943BE"/>
<path id="Vector_27" d="M34.0183 18.161C33.9287 18.1617 33.841 18.1358 33.7662 18.0866C33.6913 18.0374 33.6328 17.9672 33.598 17.8848C33.5632 17.8024 33.5537 17.7116 33.5707 17.6239C33.5877 17.5361 33.6304 17.4553 33.6934 17.3918C33.7564 17.3282 33.8369 17.2848 33.9247 17.2669C34.0125 17.2491 34.1036 17.2576 34.1865 17.2914C34.2694 17.3253 34.3404 17.3829 34.3905 17.457C34.4406 17.5312 34.4675 17.6185 34.4678 17.7078C34.4693 17.7674 34.4587 17.8266 34.4367 17.8819C34.4147 17.9373 34.3818 17.9876 34.3398 18.0299C34.2978 18.0723 34.2477 18.1057 34.1925 18.1282C34.1372 18.1508 34.078 18.1619 34.0183 18.161Z" fill="#5943BE"/>
<path id="Vector_28" d="M36.4418 27.325C36.4455 27.3858 36.4366 27.4468 36.4158 27.504C36.395 27.5613 36.3626 27.6137 36.3207 27.6581C36.2789 27.7024 36.2284 27.7377 36.1723 27.7619C36.1162 27.786 36.0558 27.7985 35.9948 27.7985C35.9337 27.7985 35.8733 27.786 35.8172 27.7619C35.7612 27.7377 35.7106 27.7024 35.6688 27.6581C35.6269 27.6137 35.5946 27.5613 35.5737 27.504C35.5529 27.4468 35.544 27.3858 35.5477 27.325C35.544 27.2642 35.5529 27.2033 35.5737 27.146C35.5946 27.0888 35.6269 27.0363 35.6688 26.992C35.7106 26.9476 35.7612 26.9123 35.8172 26.8882C35.8733 26.864 35.9337 26.8516 35.9948 26.8516C36.0558 26.8516 36.1162 26.864 36.1723 26.8882C36.2284 26.9123 36.2789 26.9476 36.3207 26.992C36.3626 27.0363 36.395 27.0888 36.4158 27.146C36.4366 27.2033 36.4455 27.2642 36.4418 27.325Z" fill="#5943BE"/>
<path id="Vector_29" d="M39.8121 23.9297C39.7522 23.9308 39.6928 23.9198 39.6373 23.8974C39.5817 23.875 39.5313 23.8416 39.4891 23.7993C39.4468 23.757 39.4135 23.7066 39.3913 23.6511C39.369 23.5957 39.3582 23.5363 39.3595 23.4765C39.3611 23.3579 39.4096 23.2446 39.4943 23.1613C39.579 23.0779 39.6932 23.0312 39.8121 23.0313C39.9295 23.0312 40.0422 23.0776 40.1255 23.1601C40.2088 23.2426 40.256 23.3547 40.2568 23.4718C40.2599 23.5315 40.2506 23.5912 40.2295 23.6472C40.2084 23.7032 40.176 23.7543 40.1343 23.7973C40.0926 23.8402 40.0425 23.8742 39.987 23.897C39.9316 23.9197 39.8721 23.9309 39.8121 23.9297Z" fill="#5943BE"/>
<path id="Vector_30" d="M36.4515 31.6466L33.8166 30.4122C33.7947 30.4024 33.7709 30.3977 33.7469 30.3985C33.7229 30.3993 33.6994 30.4055 33.6782 30.4166C33.6569 30.4277 33.6385 30.4435 33.6242 30.4628C33.61 30.4821 33.6003 30.5043 33.5959 30.5278L33.3688 31.897C33.3656 31.9196 33.3673 31.9426 33.3738 31.9644C33.3803 31.9863 33.3915 32.0065 33.4066 32.0236C33.4217 32.0408 33.4403 32.0545 33.4612 32.0638C33.4821 32.0731 33.5047 32.0778 33.5276 32.0776L36.3864 31.9413C36.4199 31.9382 36.4516 31.9245 36.4768 31.9023C36.502 31.8801 36.5195 31.8505 36.5267 31.8177C36.534 31.7849 36.5306 31.7506 36.5171 31.7199C36.5036 31.6891 36.4806 31.6635 36.4515 31.6466Z" fill="#FF6533"/>
<path id="Vector_31" d="M36.8529 31.0421L36.1064 30.0342C36.1 30.026 36.0919 30.0193 36.0825 30.0148C36.0731 30.0102 36.0629 30.0078 36.0524 30.0078C36.042 30.0078 36.0317 30.0102 36.0224 30.0148C36.013 30.0193 36.0048 30.026 35.9984 30.0342L35.6315 30.5096C35.6253 30.5175 35.621 30.5266 35.6188 30.5364C35.6166 30.5462 35.6167 30.5563 35.6189 30.5661C35.6212 30.5758 35.6257 30.5849 35.632 30.5927C35.6383 30.6005 35.6463 30.6068 35.6554 30.611L36.7671 31.1451C36.7808 31.1564 36.7985 31.1619 36.8162 31.1602C36.8339 31.1586 36.8503 31.15 36.8616 31.1363C36.873 31.1227 36.8785 31.1051 36.8768 31.0874C36.8752 31.0697 36.8666 31.0534 36.8529 31.0421Z" fill="#FF6533"/>
<path id="Vector_32" d="M38.3201 33.9129L41.2314 33.8828C41.255 33.8834 41.2782 33.8892 41.2994 33.8998C41.3205 33.9105 41.3389 33.9257 41.3534 33.9444C41.3678 33.9631 41.3779 33.9847 41.3829 34.0078C41.3879 34.0309 41.3877 34.0548 41.3822 34.0777L41.0201 35.4199C41.0135 35.442 41.0021 35.4623 40.9868 35.4796C40.9715 35.4968 40.9526 35.5105 40.9314 35.5197C40.9103 35.5289 40.8873 35.5334 40.8643 35.5329C40.8412 35.5323 40.8185 35.5268 40.7978 35.5166L38.2566 34.2061C38.2282 34.189 38.2059 34.1635 38.1927 34.1332C38.1796 34.1028 38.1763 34.0691 38.1833 34.0368C38.1903 34.0045 38.2072 33.9752 38.2318 33.953C38.2563 33.9308 38.2872 33.9167 38.3201 33.9129Z" fill="#FF6533"/>
<path id="Vector_33" d="M38.0921 34.5446L39.0561 35.3465C39.0644 35.3528 39.0711 35.361 39.0757 35.3703C39.0802 35.3797 39.0826 35.3899 39.0826 35.4003C39.0826 35.4107 39.0802 35.421 39.0757 35.4303C39.0711 35.4397 39.0644 35.4478 39.0561 35.4542L38.5606 35.7933C38.5524 35.7991 38.5429 35.8028 38.533 35.8044C38.5231 35.806 38.5129 35.8053 38.5033 35.8024C38.4937 35.7995 38.4848 35.7945 38.4774 35.7877C38.47 35.7809 38.4643 35.7725 38.4606 35.7632L37.9841 34.6207C37.9766 34.6064 37.9746 34.5899 37.9784 34.5743C37.9823 34.5586 37.9916 34.5449 38.0048 34.5356C38.018 34.5263 38.0341 34.5221 38.0501 34.5238C38.0662 34.5254 38.0811 34.5329 38.0921 34.5446Z" fill="#FF6533"/>
</g>
<defs>
<filter id="filter0_d_98_9027" x="0" y="0" width="62" height="61.877" filterUnits="userSpaceOnUse" color-interpolation-filters="sRGB">
<feFlood flood-opacity="0" result="BackgroundImageFix"/>
<feColorMatrix in="SourceAlpha" type="matrix" values="0 0 0 0 0 0 0 0 0 0 0 0 0 0 0 0 0 0 127 0" result="hardAlpha"/>
<feOffset dy="4"/>
<feGaussianBlur stdDeviation="2"/>
<feComposite in2="hardAlpha" operator="out"/>
<feColorMatrix type="matrix" values="0 0 0 0 0 0 0 0 0 0 0 0 0 0 0 0 0 0 0.05 0"/>
<feBlend mode="normal" in2="BackgroundImageFix" result="effect1_dropShadow_98_9027"/>
<feBlend mode="normal" in="SourceGraphic" in2="effect1_dropShadow_98_9027" result="shape"/>
</filter>
</defs>
</svg>
