<svg width="62" height="62" viewBox="0 0 62 62" fill="none" xmlns="http://www.w3.org/2000/svg">
<g id="Group 857" filter="url(#filter0_d_98_9062)">
<path id="Vector" d="M31 54C45.9117 54 58 41.9117 58 27C58 12.0883 45.9117 0 31 0C16.0883 0 4 12.0883 4 27C4 41.9117 16.0883 54 31 54Z" fill="#E4EAF1"/>
<path id="Vector_2" d="M39.5778 41.6435L15.8988 17.8438L14.3359 19.4066L22.7536 27.8242H20.8302C20.1121 27.8119 19.3988 27.9427 18.7318 28.209C18.0648 28.4753 17.4575 28.8717 16.9454 29.3752C16.4332 29.8787 16.0264 30.4791 15.7487 31.1414C15.471 31.8038 15.328 32.5148 15.328 33.233C15.328 33.9511 15.471 34.6621 15.7487 35.3245C16.0264 35.9868 16.4332 36.5872 16.9454 37.0907C17.4575 37.5942 18.0648 37.9906 18.7318 38.2569C19.3988 38.5232 20.1121 38.654 20.8302 38.6417C23.4746 38.6417 25.7538 36.7183 26.1191 34.1946L27.9217 33.113L28.6428 33.8341C28.7675 35.0667 29.3141 36.2184 30.1901 37.0944C31.0661 37.9704 32.2178 38.517 33.4504 38.6417L38.0181 43.2095L39.5778 41.6435ZM23.5906 34.1915C23.2301 35.3937 22.0294 36.2355 20.7064 36.2355C19.1435 36.2355 17.8221 34.9125 17.8221 33.2306C17.8181 32.8348 17.8931 32.4423 18.0426 32.0759C18.1922 31.7095 18.4134 31.3766 18.6933 31.0968C18.9731 30.8169 19.306 30.5957 19.6724 30.4461C20.0388 30.2966 20.4313 30.2216 20.8271 30.2256C22.1485 30.2256 23.2301 31.0658 23.7113 32.3888H20.2251V34.1915H23.5906ZM26.4764 25.4101L24.0718 23.0071H29.1208L33.9284 27.8147H34.0491C34.7596 27.8128 35.4634 27.9515 36.1201 28.2228C36.7767 28.4941 37.3731 28.8926 37.8751 29.3955C38.377 29.8983 38.7745 30.4955 39.0447 31.1526C39.3148 31.8097 39.4523 32.5138 39.4491 33.2242C39.4311 34.599 38.9193 35.9215 38.007 36.9502L36.3251 35.2667C36.806 34.7435 37.0646 34.0538 37.0461 33.3433C37.0499 32.9477 36.9748 32.5552 36.8252 32.1889C36.6755 31.8226 36.4543 31.4898 36.1745 31.21C35.8947 30.9302 35.5619 30.709 35.1956 30.5594C34.8293 30.4097 34.4369 30.3346 34.0412 30.3384C33.3308 30.3199 32.641 30.5785 32.1178 31.0595L28.8715 27.8147H30.555L28.1584 25.4101H26.4764Z" fill="#5943BE"/>
<path id="Vector_3" d="M38.7825 20.8206L36.4509 18.5113L37.4595 17.5012L38.7587 18.8004L41.1648 16.3958L42.175 17.4059L38.7825 20.8206ZM49.025 29.6687L42.9659 23.6096C42.4676 24.0037 41.9072 24.3123 41.3078 24.5228C40.6668 24.7497 39.9913 24.8636 39.3114 24.8595C38.0687 24.8639 36.8527 24.4992 35.8176 23.8115C34.7825 23.1239 33.975 22.1443 33.4974 20.9971C33.0198 19.8498 32.8937 18.5866 33.1351 17.3676C33.3764 16.1486 33.9744 15.0287 34.8531 14.15C35.7318 13.2713 36.8517 12.6733 38.0707 12.432C39.2897 12.1906 40.553 12.3167 41.7002 12.7943C42.8474 13.2719 43.827 14.0794 44.5146 15.1145C45.2023 16.1496 45.567 17.3656 45.5626 18.6082C45.5676 19.2877 45.4536 19.9628 45.226 20.6031C45.0158 21.2031 44.7072 21.7641 44.3127 22.2628L50.3766 28.3219L49.025 29.6687ZM39.3114 22.9362C40.3078 22.9322 41.2722 22.5831 42.0403 21.9483C42.8084 21.3134 43.3328 20.432 43.5243 19.4541C43.7158 18.4762 43.5626 17.4621 43.0907 16.5844C42.6188 15.7067 41.8573 15.0197 40.9359 14.6402C40.0145 14.2606 38.9901 14.212 38.0369 14.5027C37.0838 14.7934 36.2607 15.4053 35.7079 16.2344C35.1551 17.0635 34.9066 18.0585 35.0047 19.0501C35.1028 20.0418 35.5415 20.9688 36.2461 21.6735C36.6443 22.0827 37.1222 22.4059 37.6502 22.623C38.1783 22.8402 38.7453 22.9468 39.3161 22.9362H39.3114Z" fill="#FF6533"/>
</g>
<defs>
<filter id="filter0_d_98_9062" x="0" y="0" width="62" height="62" filterUnits="userSpaceOnUse" color-interpolation-filters="sRGB">
<feFlood flood-opacity="0" result="BackgroundImageFix"/>
<feColorMatrix in="SourceAlpha" type="matrix" values="0 0 0 0 0 0 0 0 0 0 0 0 0 0 0 0 0 0 127 0" result="hardAlpha"/>
<feOffset dy="4"/>
<feGaussianBlur stdDeviation="2"/>
<feComposite in2="hardAlpha" operator="out"/>
<feColorMatrix type="matrix" values="0 0 0 0 0 0 0 0 0 0 0 0 0 0 0 0 0 0 0.05 0"/>
<feBlend mode="normal" in2="BackgroundImageFix" result="effect1_dropShadow_98_9062"/>
<feBlend mode="normal" in="SourceGraphic" in2="effect1_dropShadow_98_9062" result="shape"/>
</filter>
</defs>
</svg>
