<svg width="127" height="127" viewBox="0 0 127 127" fill="none" xmlns="http://www.w3.org/2000/svg">
<g id="https://lottiefiles.com/33886-check-okey-done" clip-path="url(#clip0_98_9483)">
<g id="Clip path group">
<mask id="mask0_98_9483" style="mask-type:luminance" maskUnits="userSpaceOnUse" x="0" y="0" width="127" height="127">
<g id="__lottie_element_553">
<path id="Vector" d="M127 0H0V127H127V0Z" fill="white"/>
</g>
</mask>
<g mask="url(#mask0_98_9483)">
<g id="Group">
<g id="Group_2">
<g id="Group_3">
<path id="Vector_2" d="M63.4856 25.3848C84.513 25.3848 101.586 42.4573 101.586 63.4847C101.586 84.512 84.513 101.585 63.4856 101.585C42.4583 101.585 25.3857 84.512 25.3857 63.4847C25.3857 42.4573 42.4583 25.3848 63.4856 25.3848Z" fill="#FC683F"/>
</g>
</g>
<g id="Group_4">
<g id="Group_5">
<path id="Vector_3" d="M63.4857 25.3848C84.5131 25.3848 101.586 42.4574 101.586 63.4848C101.586 84.5122 84.5131 101.585 63.4857 101.585C42.4584 101.585 25.3857 84.5122 25.3857 63.4848C25.3857 42.4574 42.4584 25.3848 63.4857 25.3848Z" stroke="#FF724A" stroke-width="4.58611" stroke-linecap="round" stroke-linejoin="round"/>
</g>
</g>
<g id="Group_6">
<g id="Group_7">
<path id="Vector_4" d="M44.3174 62.9994L58.8989 77.5808C58.8989 77.5808 74.3715 59.161 82.956 48.9414" stroke="white" stroke-width="6.93796" stroke-linecap="round" stroke-linejoin="round"/>
</g>
</g>
</g>
</g>
</g>
</g>
<defs>
<clipPath id="clip0_98_9483">
<rect width="127" height="127" fill="white"/>
</clipPath>
</defs>
</svg>
