<svg width="26" height="24" viewBox="0 0 26 24" fill="none" xmlns="http://www.w3.org/2000/svg">
<g id="mdi:email-certified">
<g clip-path="url(#clip0_98_9121)">
<path id="Vector" d="M13.5187 19.3C13.2106 18.4 13.416 17.7 13.5187 17.3C13.416 16.9 13.2106 16.3 13.416 15.4C13.7241 14.6 14.2377 14.2 14.5458 13.9C14.6485 13.5 14.8539 12.9 15.6756 12.3C16.3946 11.8 17.1135 11.8 17.5244 11.8C17.6271 11.7 17.8325 11.6 18.0379 11.5V8.6C18.1406 7.7 17.4217 7 16.4973 7H3.35039C2.426 7 1.70703 7.7 1.70703 8.6V18.4C1.70703 19.3 2.426 20 3.35039 20H13.9295C13.7241 19.8 13.6214 19.6 13.5187 19.3ZM3.76123 11V9L9.92383 12L16.0864 9V11L9.92383 14L3.76123 11ZM23.8924 15.9C23.687 15.3 23.1734 15.2 22.8653 14.9C22.6599 14.6 22.6599 14 22.1463 13.7C21.6328 13.3 21.1192 13.5 20.7084 13.4C20.2975 13.3 19.9894 12.8 19.3732 12.8C18.7569 12.8 18.4488 13.2 18.0379 13.4C17.6271 13.5 17.1135 13.3 16.6 13.7C16.0864 14 16.1891 14.5 15.881 14.9C15.5729 15.2 15.0593 15.4 14.8539 15.9C14.6485 16.5 15.0593 16.9 15.0593 17.3C15.0593 17.7 14.6485 18.1 14.8539 18.7C15.0593 19.3 15.5729 19.4 15.881 19.7C16.0864 20 16.0864 20.6 16.6 20.9C17.1135 21.3 17.6271 21.1 18.0379 21.2C18.4488 21.3 18.7569 21.8 19.3732 21.8C19.9894 21.8 20.2975 21.4 20.7084 21.2C21.1192 21.1 21.6328 21.3 22.1463 20.9C22.6599 20.5 22.6599 20 22.8653 19.7C23.1734 19.4 23.687 19.2 23.8924 18.7C24.0978 18.1 23.687 17.7 23.687 17.3C23.687 16.9 24.0978 16.5 23.8924 15.9ZM19.3732 20.4C17.6271 20.4 16.2919 19 16.2919 17.4C16.2919 15.8 17.7298 14.4 19.3732 14.4C21.0165 14.4 22.4545 15.8 22.4545 17.4C22.4545 19 21.1192 20.4 19.3732 20.4ZM20.9138 17.3C20.9138 18.1 20.1948 18.8 19.3732 18.8C18.5515 18.8 17.8325 18.1 17.8325 17.3C17.8325 16.5 18.5515 15.8 19.3732 15.8C20.1948 15.8 20.9138 16.5 20.9138 17.3ZM20.7084 23.1L20.1948 25.8L19.5786 28.9L17.5244 27L15.0593 28.1L16.0864 22.4C16.4973 22.6 17.0108 22.7 17.5244 22.7C17.8325 22.9 18.2433 23.1 18.5515 23.2C18.7569 23.3 19.065 23.3 19.3732 23.3C19.8867 23.4 20.2975 23.3 20.7084 23.1ZM23.9951 25.5L21.9409 24.8L22.3517 22.6L22.968 22.3L23.0707 22.2L23.9951 25.5Z" fill="white"/>
</g>
</g>
<defs>
<clipPath id="clip0_98_9121">
<rect x="0.679688" width="24.6504" height="24" rx="5" fill="white"/>
</clipPath>
</defs>
</svg>
