<svg width="24" height="24" viewBox="0 0 24 24" fill="none" xmlns="http://www.w3.org/2000/svg">
<g id="material-symbols:emergency-home-rounded">
<path id="Vector" d="M12.0016 22.0266C11.7349 22.0266 11.4806 21.9766 11.2386 21.8766C10.9966 21.7766 10.7759 21.6349 10.5766 21.4516L2.55156 13.4266C2.36823 13.2266 2.22656 13.0056 2.12656 12.7636C2.02656 12.5216 1.97656 12.2676 1.97656 12.0016C1.97656 11.7349 2.02656 11.4766 2.12656 11.2266C2.22656 10.9766 2.36823 10.7599 2.55156 10.5766L10.5766 2.55157C10.7766 2.35157 10.9976 2.20557 11.2396 2.11357C11.4816 2.02157 11.7356 1.9759 12.0016 1.97657C12.2682 1.97657 12.5266 2.02257 12.7766 2.11457C13.0266 2.20657 13.2432 2.35224 13.4266 2.55157L21.4516 10.5766C21.6516 10.7599 21.7976 10.9766 21.8896 11.2266C21.9816 11.4766 22.0272 11.7349 22.0266 12.0016C22.0266 12.2682 21.9809 12.5226 21.8896 12.7646C21.7982 13.0066 21.6522 13.2272 21.4516 13.4266L13.4266 21.4516C13.2432 21.6349 13.0266 21.7766 12.7766 21.8766C12.5266 21.9766 12.2682 22.0266 12.0016 22.0266ZM12.0016 13.0016C12.2849 13.0016 12.5226 12.9059 12.7146 12.7146C12.9066 12.5232 13.0022 12.2856 13.0016 12.0016V8.00157C13.0016 7.71824 12.9056 7.48057 12.7136 7.28857C12.5216 7.09657 12.2842 7.0009 12.0016 7.00157C11.7182 7.00157 11.4806 7.09757 11.2886 7.28957C11.0966 7.48157 11.0009 7.7189 11.0016 8.00157V12.0016C11.0016 12.2849 11.0976 12.5226 11.2896 12.7146C11.4816 12.9066 11.7189 13.0022 12.0016 13.0016ZM12.0016 16.0016C12.2849 16.0016 12.5226 15.9056 12.7146 15.7136C12.9066 15.5216 13.0022 15.2842 13.0016 15.0016C13.0016 14.7182 12.9056 14.4806 12.7136 14.2886C12.5216 14.0966 12.2842 14.0009 12.0016 14.0016C11.7182 14.0016 11.4806 14.0976 11.2886 14.2896C11.0966 14.4816 11.0009 14.7189 11.0016 15.0016C11.0016 15.2849 11.0976 15.5226 11.2896 15.7146C11.4816 15.9066 11.7189 16.0022 12.0016 16.0016Z" fill="#FC683F"/>
</g>
</svg>
