<svg width="18" height="16" viewBox="0 0 18 16" fill="none" xmlns="http://www.w3.org/2000/svg">
<path id="Vector" d="M15.8018 5.54127C15.8038 5.54078 15.8052 5.53896 15.8052 5.53686C15.8046 5.37264 15.7579 5.21187 15.6702 5.07274C15.5818 4.9326 15.4554 4.81778 15.3048 4.74349C15.1541 4.6692 14.9861 4.63543 14.8164 4.64894C14.6467 4.66245 14.4874 4.72154 14.3505 4.81778C14.2137 4.91571 14.1081 5.04741 14.044 5.20106C13.9799 5.3547 13.9609 5.52186 13.9869 5.68395C14.0146 5.84772 14.0873 5.99968 14.1964 6.12462V6.12462C14.3942 6.34761 14.612 6.59586 14.612 6.89394V12.492C14.612 13.2105 14.1585 14.2881 13.7161 14.8542V14.8542C11.932 17.1371 9.19327 15.2469 9.19327 12.3496V7.03715C9.19327 6.65525 9.48738 6.33452 9.69376 6.01319V6.01319C9.80805 5.83253 9.85308 5.61641 9.82018 5.40536C9.78727 5.1943 9.67644 5.00182 9.51192 4.86337C9.34566 4.72492 9.13612 4.64894 8.91791 4.64894C8.69971 4.64894 8.48843 4.72492 8.32391 4.86337C8.15766 5.00182 8.04855 5.1943 8.01565 5.40536C7.98275 5.61641 8.02604 5.83253 8.14207 6.01319V6.01319C8.34632 6.33602 8.64256 6.65533 8.64256 7.03735V12.3504C8.64256 15.2466 5.90242 17.1368 4.119 14.8548V14.8548C3.67694 14.2892 3.22378 13.2125 3.22378 12.4947V7.03715C3.22378 6.65525 3.51789 6.33452 3.72427 6.01319V6.01319C3.8403 5.83253 3.8836 5.61641 3.85069 5.40536C3.81779 5.1943 3.70695 5.00182 3.54243 4.86337C3.37618 4.72492 3.1649 4.64894 2.9467 4.64894C2.72849 4.64894 2.51721 4.72492 2.35096 4.86337C2.18471 5.00182 2.07561 5.1943 2.0427 5.40536C2.0098 5.61641 2.05309 5.83253 2.16912 6.01319V6.01319C2.37208 6.33699 2.66961 6.65542 2.66961 7.03757V7.40011C2.66961 8.80634 1.15915 9.11321 0.901706 7.73074C0.699914 6.64713 0.591327 5.478 0.604605 4.22003C0.614942 3.24072 1.33121 2.43065 2.2844 2.20574L2.46058 2.16417C4.04757 1.78971 5.56863 2.99364 5.56863 4.6242V10.4817C5.56863 10.8636 5.27452 11.1843 5.06814 11.5056V11.5056C4.95211 11.6863 4.90882 11.9024 4.94172 12.1135C4.97462 12.3245 5.08546 12.517 5.24998 12.6554C5.41623 12.7939 5.62751 12.8699 5.84398 12.8699C6.06046 12.8699 6.27347 12.7939 6.43799 12.6554C6.60424 12.517 6.71334 12.3245 6.74625 12.1135C6.77915 11.9024 6.73586 11.6863 6.61983 11.5056V11.5056C6.41558 11.1828 6.11934 10.8635 6.11934 10.4815V3.50888C6.11934 2.21399 7.00978 1.08907 8.27009 0.791798V0.791798C8.69157 0.69238 9.1304 0.69238 9.55188 0.791798V0.791798C10.8122 1.08907 11.7026 2.21399 11.7026 3.50888V10.4817C11.7026 10.8636 11.4085 11.1843 11.2021 11.5056V11.5056C11.0878 11.688 11.0428 11.9024 11.0757 12.1135C11.1086 12.3245 11.2195 12.517 11.384 12.6554C11.5502 12.7939 11.7615 12.8699 11.9797 12.8699C12.1979 12.8699 12.4092 12.7939 12.5755 12.6554C12.7417 12.517 12.8508 12.3245 12.8837 12.1135C12.9166 11.9024 12.8733 11.6863 12.7573 11.5056V11.5056C12.5543 11.1818 12.2568 10.8634 12.2568 10.4813V4.6242C12.2568 2.99364 13.7779 1.78971 15.3649 2.16417L15.5457 2.20684C16.4961 2.43109 17.2102 3.23878 17.2208 4.21523C17.2344 5.47298 17.1263 6.64194 16.9252 7.72544C16.669 9.10563 15.161 8.80028 15.161 7.39652V6.96752C15.161 6.62695 15.4184 6.34385 15.6217 6.07059V6.07059C15.7353 5.91791 15.7975 5.7352 15.7983 5.54569C15.7983 5.54359 15.7997 5.54177 15.8018 5.54127V5.54127Z" fill="#38A849"/>
</svg>
