<svg width="26" height="27" viewBox="0 0 26 27" fill="none" xmlns="http://www.w3.org/2000/svg">
<g id="heroicons-outline:home">
<path id="Vector" d="M3.25 13.5L5.41667 11.3333M5.41667 11.3333L13 3.75L20.5833 11.3333M5.41667 11.3333V22.1667C5.41667 22.454 5.5308 22.7295 5.73397 22.9327C5.93713 23.1359 6.21268 23.25 6.5 23.25H9.75M20.5833 11.3333L22.75 13.5M20.5833 11.3333V22.1667C20.5833 22.454 20.4692 22.7295 20.266 22.9327C20.0629 23.1359 19.7873 23.25 19.5 23.25H16.25M9.75 23.25C10.0373 23.25 10.3129 23.1359 10.516 22.9327C10.7192 22.7295 10.8333 22.454 10.8333 22.1667V17.8333C10.8333 17.546 10.9475 17.2705 11.1506 17.0673C11.3538 16.8641 11.6293 16.75 11.9167 16.75H14.0833C14.3707 16.75 14.6462 16.8641 14.8494 17.0673C15.0525 17.2705 15.1667 17.546 15.1667 17.8333V22.1667C15.1667 22.454 15.2808 22.7295 15.484 22.9327C15.6871 23.1359 15.9627 23.25 16.25 23.25M9.75 23.25H16.25" stroke="#909FBF" stroke-width="2" stroke-linecap="round" stroke-linejoin="round"/>
</g>
</svg>
