<svg width="12" height="12" viewBox="0 0 12 12" fill="none" xmlns="http://www.w3.org/2000/svg">
<g id="material-symbols:emergency-rounded">
<path id="Vector" d="M5.62292 10.5C5.48125 10.5 5.36242 10.452 5.26642 10.356C5.17042 10.26 5.12258 10.1413 5.12292 10V7.525L2.97292 8.7625C2.85625 8.82917 2.72908 8.84584 2.59142 8.8125C2.45375 8.77917 2.35175 8.7 2.28542 8.575L1.91042 7.925C1.84375 7.80834 1.82708 7.68334 1.86042 7.55C1.89375 7.41667 1.97292 7.31667 2.09792 7.25L4.24792 6L2.11042 4.7625C1.98542 4.69583 1.90625 4.59384 1.87292 4.4565C1.83958 4.31917 1.85625 4.192 1.92292 4.075L2.29792 3.425C2.36458 3.30834 2.46458 3.23334 2.59792 3.2C2.73125 3.16667 2.86042 3.18334 2.98542 3.25L5.12292 4.4875V2C5.12292 1.85834 5.17092 1.7395 5.26692 1.6435C5.36292 1.5475 5.48158 1.49967 5.62292 1.5H6.37292C6.51458 1.5 6.63342 1.548 6.72942 1.644C6.82542 1.74 6.87325 1.85867 6.87292 2V4.4875L9.02292 3.25C9.13958 3.175 9.26675 3.15634 9.40442 3.194C9.54208 3.23167 9.64408 3.31284 9.71042 3.4375L10.0729 4.075C10.1396 4.19167 10.1543 4.31884 10.1169 4.4565C10.0796 4.59417 10.0024 4.69617 9.88542 4.7625L7.74792 6L9.88542 7.25C10.0104 7.325 10.0896 7.42917 10.1229 7.5625C10.1562 7.69584 10.1396 7.82084 10.0729 7.9375L9.69792 8.5875C9.63125 8.70417 9.52925 8.77917 9.39192 8.8125C9.25458 8.84584 9.12742 8.82917 9.01042 8.7625L6.87292 7.525V10C6.87292 10.1417 6.82508 10.2605 6.72942 10.3565C6.63375 10.4525 6.51492 10.5003 6.37292 10.5H5.62292Z" fill="white"/>
</g>
</svg>
