<svg width="19" height="20" viewBox="0 0 19 20" fill="none" xmlns="http://www.w3.org/2000/svg">
<path id="Vector" d="M9.60378 19.514C9.60378 19.5143 9.60366 19.5147 9.60332 19.5146C9.49805 19.4605 7.14477 18.2377 4.91062 15.5301C3.60658 13.9565 2.60041 12.1668 1.93714 10.2487C1.1128 7.85961 0.823594 5.25606 1.07297 2.50731V2.50731C1.09676 2.24711 1.28424 2.03125 1.53854 1.97124L8.74476 0.270926C9.49987 0.0927551 10.2861 0.0927548 11.0412 0.270926L18.2474 1.97124C18.5017 2.03125 18.6892 2.24711 18.713 2.50731V2.50731C18.9624 5.25606 18.6732 7.85961 17.8506 10.247C17.1873 12.1668 16.1811 13.9548 14.8771 15.5284C12.6396 18.2384 10.2826 19.4608 10.1839 19.5131L9.96375 19.6249C9.92035 19.647 9.86905 19.647 9.8256 19.6251L9.60453 19.5135C9.60418 19.5133 9.60378 19.5136 9.60378 19.514V19.514Z" fill="white"/>
</svg>
