<svg width="26" height="27" viewBox="0 0 26 27" fill="none" xmlns="http://www.w3.org/2000/svg">
<g id="mingcute:user-3-line" clip-path="url(#clip0_98_9107)">
<g id="Group">
<path id="Vector" fill-rule="evenodd" clip-rule="evenodd" d="M13 14.5827C15.5957 14.5827 17.9563 15.3345 19.6928 16.3929C20.5595 16.9238 21.3005 17.5467 21.8357 18.2238C22.3622 18.8911 22.75 19.6884 22.75 20.541C22.75 21.4564 22.3048 22.1779 21.6634 22.6925C21.0568 23.18 20.2562 23.5028 19.4058 23.7282C17.6963 24.1799 15.4148 24.3327 13 24.3327C10.5853 24.3327 8.30375 24.181 6.59425 23.7282C5.74383 23.5028 4.94325 23.18 4.33658 22.6925C3.69417 22.1768 3.25 21.4564 3.25 20.541C3.25 19.6884 3.63783 18.8911 4.16433 18.2238C4.6995 17.5467 5.43942 16.9238 6.30717 16.3929C8.04375 15.3345 10.4054 14.5827 13 14.5827ZM13 16.7493C10.8084 16.7493 8.83675 17.3885 7.436 18.2433C6.73508 18.6701 6.20642 19.1338 5.86517 19.5671C5.51417 20.0113 5.41667 20.3471 5.41667 20.541C5.41667 20.6732 5.45675 20.8129 5.69292 21.0025C5.96267 21.2192 6.43175 21.4434 7.14892 21.633C8.57675 22.0122 10.6286 22.166 13 22.166C15.3725 22.166 17.4233 22.0111 18.85 21.633C19.5683 21.4434 20.0373 21.2192 20.3071 21.0025C20.5433 20.8129 20.5833 20.6732 20.5833 20.541C20.5833 20.346 20.4858 20.0113 20.1359 19.5671C19.7936 19.1338 19.2649 18.6701 18.564 18.2433C17.1632 17.3874 15.1916 16.7493 13 16.7493ZM13 2.66602C14.4366 2.66602 15.8143 3.2367 16.8302 4.25252C17.846 5.26834 18.4167 6.64609 18.4167 8.08268C18.4167 9.51927 17.846 10.897 16.8302 11.9128C15.8143 12.9287 14.4366 13.4993 13 13.4993C11.5634 13.4993 10.1857 12.9287 9.16984 11.9128C8.15402 10.897 7.58333 9.51927 7.58333 8.08268C7.58333 6.64609 8.15402 5.26834 9.16984 4.25252C10.1857 3.2367 11.5634 2.66602 13 2.66602ZM13 4.83268C12.5732 4.83268 12.1506 4.91675 11.7563 5.08007C11.362 5.2434 11.0037 5.48279 10.7019 5.78459C10.4001 6.08638 10.1607 6.44465 9.99739 6.83896C9.83406 7.23327 9.75 7.65589 9.75 8.08268C9.75 8.50948 9.83406 8.9321 9.99739 9.3264C10.1607 9.72071 10.4001 10.079 10.7019 10.3808C11.0037 10.6826 11.362 10.922 11.7563 11.0853C12.1506 11.2486 12.5732 11.3327 13 11.3327C13.862 11.3327 14.6886 10.9903 15.2981 10.3808C15.9076 9.77129 16.25 8.94464 16.25 8.08268C16.25 7.22073 15.9076 6.39408 15.2981 5.78459C14.6886 5.17509 13.862 4.83268 13 4.83268Z" fill="#909FBF"/>
</g>
</g>
<defs>
<clipPath id="clip0_98_9107">
<rect width="26" height="26" fill="white" transform="translate(0 0.5)"/>
</clipPath>
</defs>
</svg>
