<svg width="25" height="24" viewBox="0 0 25 24" fill="none" xmlns="http://www.w3.org/2000/svg">
<g id="material-symbols:document-scanner-rounded">
<path id="Vector" d="M3.5 6C3.21667 6 2.979 5.904 2.787 5.712C2.595 5.52 2.49934 5.28267 2.5 5V2C2.5 1.71667 2.596 1.479 2.788 1.287C2.98 1.095 3.21734 0.999337 3.5 1H6.5C6.78334 1 7.021 1.096 7.213 1.288C7.405 1.48 7.50067 1.71734 7.5 2C7.5 2.28334 7.404 2.521 7.212 2.713C7.02 2.905 6.78267 3.00067 6.5 3H4.5V5C4.5 5.28334 4.404 5.521 4.212 5.713C4.02 5.905 3.78267 6.00067 3.5 6ZM21.5 6C21.2167 6 20.979 5.904 20.787 5.712C20.595 5.52 20.4993 5.28267 20.5 5V3H18.5C18.2167 3 17.979 2.904 17.787 2.712C17.595 2.52 17.4993 2.28267 17.5 2C17.5 1.71667 17.596 1.479 17.788 1.287C17.98 1.095 18.2173 0.999337 18.5 1H21.5C21.7833 1 22.021 1.096 22.213 1.288C22.405 1.48 22.5007 1.71734 22.5 2V5C22.5 5.28334 22.404 5.521 22.212 5.713C22.02 5.905 21.7827 6.00067 21.5 6ZM3.5 23C3.21667 23 2.979 22.904 2.787 22.712C2.595 22.52 2.49934 22.2827 2.5 22V19C2.5 18.7167 2.596 18.479 2.788 18.287C2.98 18.095 3.21734 17.9993 3.5 18C3.78334 18 4.021 18.096 4.213 18.288C4.405 18.48 4.50067 18.7173 4.5 19V21H6.5C6.78334 21 7.021 21.096 7.213 21.288C7.405 21.48 7.50067 21.7173 7.5 22C7.5 22.2833 7.404 22.521 7.212 22.713C7.02 22.905 6.78267 23.0007 6.5 23H3.5ZM18.5 23C18.2167 23 17.979 22.904 17.787 22.712C17.595 22.52 17.4993 22.2827 17.5 22C17.5 21.7167 17.596 21.479 17.788 21.287C17.98 21.095 18.2173 20.9993 18.5 21H20.5V19C20.5 18.7167 20.596 18.479 20.788 18.287C20.98 18.095 21.2173 17.9993 21.5 18C21.7833 18 22.021 18.096 22.213 18.288C22.405 18.48 22.5007 18.7173 22.5 19V22C22.5 22.2833 22.404 22.521 22.212 22.713C22.02 22.905 21.7827 23.0007 21.5 23H18.5ZM7.5 20C6.95 20 6.479 19.804 6.087 19.412C5.695 19.02 5.49934 18.5493 5.5 18V6C5.5 5.45 5.696 4.979 6.088 4.587C6.48 4.195 6.95067 3.99934 7.5 4H17.5C18.05 4 18.521 4.196 18.913 4.588C19.305 4.98 19.5007 5.45067 19.5 6V18C19.5 18.55 19.304 19.021 18.912 19.413C18.52 19.805 18.0493 20.0007 17.5 20H7.5ZM10.5 10H14.5C14.7833 10 15.021 9.904 15.213 9.712C15.405 9.52 15.5007 9.28267 15.5 9C15.5 8.71667 15.404 8.479 15.212 8.287C15.02 8.095 14.7827 7.99934 14.5 8H10.5C10.2167 8 9.979 8.096 9.787 8.288C9.595 8.48 9.49934 8.71734 9.5 9C9.5 9.28334 9.596 9.521 9.788 9.713C9.98 9.905 10.2173 10.0007 10.5 10ZM10.5 13H14.5C14.7833 13 15.021 12.904 15.213 12.712C15.405 12.52 15.5007 12.2827 15.5 12C15.5 11.7167 15.404 11.479 15.212 11.287C15.02 11.095 14.7827 10.9993 14.5 11H10.5C10.2167 11 9.979 11.096 9.787 11.288C9.595 11.48 9.49934 11.7173 9.5 12C9.5 12.2833 9.596 12.521 9.788 12.713C9.98 12.905 10.2173 13.0007 10.5 13ZM10.5 16H14.5C14.7833 16 15.021 15.904 15.213 15.712C15.405 15.52 15.5007 15.2827 15.5 15C15.5 14.7167 15.404 14.479 15.212 14.287C15.02 14.095 14.7827 13.9993 14.5 14H10.5C10.2167 14 9.979 14.096 9.787 14.288C9.595 14.48 9.49934 14.7173 9.5 15C9.5 15.2833 9.596 15.521 9.788 15.713C9.98 15.905 10.2173 16.0007 10.5 16Z" fill="white"/>
</g>
</svg>
