<svg width="28" height="27" viewBox="0 0 28 27" fill="none" xmlns="http://www.w3.org/2000/svg">
<path id="Vector" d="M26.7311 5.00702L26.7526 5.07459C27.0192 5.91493 27.1442 6.79377 27.1226 7.67514C27.1271 9.60438 26.3728 11.458 25.0225 12.8356C24.3646 13.5131 23.5775 14.0519 22.7079 14.4201C21.8382 14.7883 20.9035 14.9784 19.9591 14.9792C19.9591 14.9792 19.959 14.9792 19.959 14.9792L19.9589 14.8542C19.0372 14.856 18.1249 14.6702 17.2757 14.3096L26.7311 5.00702ZM26.7311 5.00702L26.6621 4.99073L25.2127 4.64872L25.1451 4.63277L25.0959 4.68175L21.2681 8.48899L19.2223 6.4048L22.9593 2.48297L23.0055 2.43443L22.9907 2.36904L22.6562 0.896904L22.6406 0.828365L22.574 0.80606C21.7544 0.531795 20.8972 0.386646 20.0331 0.375812M26.7311 5.00702L17.3065 14.4579C14.1651 17.7268 8.70319 23.239 5.84259 25.9323L5.84046 25.9343L5.84043 25.9343C5.38155 26.3465 4.78976 26.581 4.17241 26.5927L4.16394 26.5929L4.16396 26.5926C3.80496 26.5751 3.44986 26.4917 3.11987 26.346L3.11519 26.344L3.11524 26.3439C2.79611 26.1872 2.5101 25.971 2.27034 25.711C1.73466 25.2281 1.41148 24.553 1.37139 23.8327C1.32115 23.1618 1.51567 22.4943 1.92449 21.9587L1.92887 21.953L1.93387 21.9478C5.6882 18.0546 9.49303 14.2104 13.3474 10.4163C12.6481 8.63853 12.6585 6.65863 13.3785 4.88689L13.3791 4.88554C13.7584 3.9824 14.3213 3.16799 15.032 2.49399C15.6707 1.82688 16.4312 1.2883 17.2724 0.907383L17.2758 0.905838L17.2759 0.90589C18.1488 0.541729 19.0874 0.361289 20.0331 0.375812M20.0331 0.375812C20.0331 0.375813 20.0332 0.375814 20.0333 0.375815L20.0313 0.5008L20.0329 0.37581C20.033 0.37581 20.033 0.375811 20.0331 0.375812ZM14.951 12.8357C15.1419 13.0347 15.3453 13.2213 15.56 13.3942C12.3831 16.6525 7.29112 21.8014 4.54803 24.4315C4.49327 24.4796 4.42766 24.5138 4.35682 24.531C4.28051 24.5438 4.20257 24.5436 4.12632 24.5304L4.12383 24.53C4.04646 24.5182 3.97277 24.489 3.90829 24.4447L3.90848 24.4444L3.90058 24.4398C3.83188 24.3995 3.77379 24.3435 3.73115 24.2762L3.72412 24.2651L3.71492 24.2557C3.59667 24.1349 3.48194 23.9584 3.42565 23.7839C3.36882 23.6077 3.37985 23.4646 3.45871 23.3707C5.9778 20.6909 11.1361 15.4801 14.4183 12.2373C14.5835 12.4462 14.7618 12.6464 14.951 12.8357ZM14.951 12.8357C14.9507 12.8353 14.9504 12.835 14.9501 12.8347L15.0403 12.7482L14.9519 12.8366C14.9516 12.8363 14.9513 12.836 14.951 12.8357ZM25.1668 7.67377V7.6741C25.1704 9.06287 24.6298 10.3971 23.6574 11.3922C22.6869 12.344 21.3821 12.8771 20.023 12.8771C18.6641 12.8771 17.3595 12.3442 16.3891 11.3927C15.6777 10.6496 15.1918 9.71977 14.9877 8.71135C14.7836 7.70229 14.87 6.65598 15.237 5.69414L15.2373 5.69328C15.4811 5.04001 15.8593 4.44521 16.3473 3.94733C16.8353 3.44945 17.4224 3.05958 18.0705 2.80293L18.0706 2.80295L18.0728 2.80201C18.6882 2.54433 19.349 2.41238 20.0162 2.41393H20.0165H20.1931L17.0224 5.68337L16.9872 5.71974V5.7704V7.06409V7.11603L17.024 7.15268L20.5452 10.6583L20.5818 10.6947H20.6334H21.8598H21.9109L21.9474 10.6588L25.1668 7.49248V7.67377ZM5.14684 11.1776L5.17341 11.191H5.20317H7.99562L9.26889 12.4864L9.35702 12.576L9.44617 12.4874L10.706 11.2346L10.794 11.1471L10.7071 11.0584L9.50719 9.83464V9.80794L9.61303 6.74499L9.61413 6.71303L9.59976 6.68448L9.19096 5.8722L9.17594 5.84235L9.14804 5.82398L3.83368 2.32579L3.79596 2.30096L3.75107 2.30597L2.6529 2.42865L2.6086 2.4336L2.57743 2.46545L1.03329 4.04354L1.00312 4.07439L0.998391 4.11728L0.875751 5.23068L0.870974 5.27405L0.894223 5.31097L4.30953 10.7348L4.32801 10.7642L4.35897 10.7798L5.14684 11.1776ZM16.5611 17.1635L16.4735 17.2511L16.5602 17.3395L22.3744 23.269L22.3757 23.2702C22.4443 23.3382 22.4978 23.42 22.5326 23.5102C22.5684 23.6055 22.5877 23.7062 22.5895 23.808C22.5879 23.9095 22.5682 24.0098 22.5312 24.1043L22.531 24.1049C22.4962 24.1953 22.4426 24.2773 22.3738 24.3455L22.3737 24.3453L22.3692 24.3502C22.304 24.4221 22.2229 24.4778 22.1324 24.5128L22.1324 24.5128L22.1305 24.5136C21.9468 24.5882 21.7412 24.5882 21.5575 24.5136L21.5555 24.5128C21.465 24.4778 21.3839 24.4222 21.3188 24.3503L21.3188 24.3502L21.3154 24.3467L15.4956 18.4098L15.4073 18.3197L15.318 18.4089L14.0563 19.6692L13.9687 19.7567L14.0554 19.8451L19.8922 25.7971C20.1308 26.0585 20.4209 26.2675 20.7443 26.411L20.7467 26.412C21.2529 26.6245 21.8113 26.6796 22.3493 26.5701C22.8873 26.4607 23.3799 26.1918 23.7629 25.7984L23.7639 25.7974C24.2722 25.263 24.5556 24.5537 24.5556 23.8162C24.5556 23.0787 24.2722 22.3694 23.7639 21.835L23.7629 21.8339L17.9914 15.9138L17.9031 15.8232L17.8135 15.9126L16.5611 17.1635ZM21.5104 24.6294C21.7243 24.7163 21.9636 24.7163 22.1775 24.6294C22.2862 24.5874 22.3835 24.5205 22.4618 24.4342C22.5432 24.3536 22.6065 24.2567 22.6476 24.1499L21.5104 24.6294ZM3.46235 4.47465L7.61964 7.21352L7.5538 9.11013H5.74405L3.06255 4.86366L3.46235 4.47465Z" fill="#909FBF" stroke="#909FBF" stroke-width="0.25"/>
</svg>
