<svg width="306" height="276" viewBox="0 0 306 276" fill="none" xmlns="http://www.w3.org/2000/svg">
<path d="M45.2517 274.507C45.2517 274.507 4.9928 235.057 0.685379 175.639C-4.67208 101.73 22.6825 62.5719 74.0627 54.6674C89.8311 52.2406 110.703 35.822 132.432 15.6438C176.287 -25.0833 300.833 18.1583 272.134 151.869C258.633 214.77 313.845 211.251 288.632 274.643L45.2517 274.508V274.507Z" fill="#EBF3FA"/>
<path d="M195.65 247.009C195.65 247.009 190.713 234.174 200.846 230.738C200.846 230.738 207.87 229.293 212.481 231.252C212.481 231.252 201.825 240.076 203.589 241.958C205.352 243.841 214.754 231.27 214.754 231.27C214.754 231.27 228.36 234.668 231.868 238.205C231.868 238.205 217.354 243.412 219.528 244.8C221.701 246.189 237.055 241.474 237.055 241.474C237.055 241.474 248.556 247.908 245.25 255.142C241.944 262.377 236.907 263.185 235.124 262.328C233.341 261.472 223.967 253.478 223.191 254.913C222.416 256.348 227.179 263.632 231.668 265.488C231.668 265.488 219.656 271.94 214.895 267.154C210.136 262.369 211.192 257.841 208.198 254.938C205.203 252.035 202.15 250.954 203.034 253.143C203.918 255.333 209.814 259.251 210.573 263.595C211.332 267.938 212.301 271.029 206.683 268.027C201.066 265.025 192.963 257.255 194.307 252.132L195.651 247.009H195.65Z" fill="#599DAD"/>
<path d="M239.161 253.202C239.161 253.202 206.368 240.106 195.647 247.006C195.647 247.006 192.295 251.292 185.723 253.945L184.19 255.792C184.19 255.792 192.111 251.764 194.302 252.13C194.302 252.13 195.265 239.204 239.16 253.204L239.161 253.202Z" fill="#599DAD"/>
<path d="M185.726 253.944C185.726 253.944 176.715 256.686 172.867 265.94L174.122 266.515C174.122 266.515 179.866 257.574 185.341 255.225C190.815 252.876 185.726 253.943 185.726 253.943V253.944Z" fill="#599DAD"/>
<path d="M118.353 198.759C118.353 198.759 124.744 193.057 120.111 188.265C120.111 188.265 116.633 185.463 113.52 185.234C113.52 185.234 116.908 193.158 115.394 193.698C113.881 194.237 112.256 184.595 112.256 184.595C112.256 184.595 103.751 182.601 100.799 183.56C100.799 183.56 107.355 190.578 105.755 190.729C104.156 190.879 96.9959 183.893 96.9959 183.893C96.9959 183.893 88.7923 184.179 88.5615 189.128C88.3307 194.078 90.8908 195.96 92.1228 195.994C93.3549 196.027 100.824 194.271 100.845 195.287C100.866 196.303 96.1523 198.98 93.1371 198.73C93.1371 198.73 97.9517 205.726 101.952 204.432C105.952 203.138 106.656 200.328 109.143 199.573C111.63 198.819 113.629 199.091 112.514 200.051C111.401 201.012 107.018 201.503 105.36 203.692C103.702 205.882 102.285 207.319 106.251 207.255C110.217 207.194 116.921 205.199 117.636 201.979L118.351 198.759H118.353Z" fill="#599DAD"/>
<path d="M92.4893 189.789C92.4893 189.789 114.384 191.879 118.357 198.757C118.357 198.757 118.992 202.086 121.876 205.427L122.199 206.887C122.199 206.887 118.96 202.399 117.641 201.977C117.641 201.977 120.791 194.543 92.4893 189.789Z" fill="#599DAD"/>
<path d="M121.874 205.429C121.874 205.429 126.084 209.515 125.578 215.737L124.72 215.698C124.72 215.698 124.086 209.109 121.723 206.248C119.359 203.387 121.874 205.429 121.874 205.429Z" fill="#599DAD"/>
<path d="M186.599 215.431C186.599 215.431 164.813 200.498 177.103 184.026C177.103 184.026 186.643 174.091 196.072 172.17C196.072 172.17 188.819 197.738 193.66 198.793C198.5 199.848 199.689 169.72 199.689 169.72C199.689 169.72 224.917 160.283 234.32 162.06C234.32 162.06 217.024 186.1 221.975 185.933C226.926 185.763 246.087 161.583 246.087 161.583C246.087 161.583 271.289 159.24 273.937 174.288C276.585 189.338 269.493 196.1 265.737 196.685C261.982 197.27 238.446 194.829 238.78 197.945C239.115 201.061 254.585 207.398 263.708 205.448C263.708 205.448 251.726 228.735 238.984 226.348C226.242 223.958 222.984 215.642 215.083 214.309C207.182 212.977 201.174 214.592 204.958 217.094C208.742 219.597 222.338 219.376 228.269 225.423C234.2 231.468 239.097 235.305 226.941 236.672C214.784 238.039 193.502 234.567 190.05 225L186.597 215.431H186.599Z" fill="#86D1CD"/>
<path d="M262.2 177.855C262.2 177.855 196.051 192.842 186.599 215.432C186.599 215.432 185.962 225.865 178.454 237.217L178.038 241.807C178.038 241.807 186.185 226.811 190.05 225.001C190.05 225.001 177.497 203.502 262.199 177.855H262.2Z" fill="#6BB7BF"/>
<path d="M178.455 237.216C178.455 237.216 167.181 251.367 171.171 270.199L173.783 269.746C173.783 269.746 173.136 249.343 179.242 239.666C185.347 229.988 178.457 237.218 178.457 237.218L178.455 237.216Z" fill="#6BB7BF"/>
<path d="M103.077 249.761C103.077 249.761 119.668 236.817 109.086 224.323C109.086 224.323 101.013 216.891 93.4204 215.826C93.4204 215.826 100.442 235.801 96.6453 236.879C92.8482 237.957 90.4247 214.056 90.4247 214.056C90.4247 214.056 69.9003 207.79 62.5094 209.664C62.5094 209.664 77.4439 227.933 73.4974 228.042C69.5524 228.15 53.1289 209.864 53.1289 209.864C53.1289 209.864 32.9718 209.237 31.6065 221.335C30.2395 233.432 36.2114 238.461 39.2265 238.742C42.2417 239.023 60.8368 235.927 60.723 238.42C60.6092 240.913 48.62 246.713 41.2697 245.611C41.2697 245.611 51.9424 263.541 61.9567 261.017C71.9711 258.493 74.154 251.719 80.3714 250.271C86.5887 248.823 91.4455 249.813 88.5603 251.989C85.6735 254.166 74.853 254.658 70.4334 259.756C66.0138 264.855 62.3078 268.146 72.041 268.635C81.7741 269.126 98.5275 265.321 100.803 257.542L103.079 249.764L103.077 249.761Z" fill="#599DAD"/>
<path d="M103.469 249.27C103.469 249.27 115.843 256.665 118.145 271.827L116.069 272.22C116.069 272.22 110.834 256.824 103.568 251.317C96.3023 245.81 103.467 249.27 103.467 249.27H103.469Z" fill="#599DAD"/>
<path d="M107.571 239.748C107.571 239.748 116.467 232.575 110.612 225.883C110.612 225.883 106.164 221.919 102.032 221.407C102.032 221.407 106.019 232.192 103.966 232.809C101.913 233.427 100.39 220.472 100.39 220.472C100.39 220.472 89.1907 217.249 85.1954 218.332C85.1954 218.332 93.4624 228.12 91.3217 228.214C89.1794 228.309 80.1045 218.522 80.1045 218.522C80.1045 218.522 69.1555 218.356 68.5184 224.937C67.8812 231.517 71.1678 234.196 72.8079 234.323C74.448 234.45 84.5176 232.606 84.477 233.96C84.438 235.316 77.9784 238.568 73.9766 238.034C73.9766 238.034 79.9274 247.676 85.3433 246.218C90.7593 244.76 91.8841 241.063 95.2471 240.223C98.6102 239.383 101.256 239.879 99.7074 241.085C98.1599 242.291 92.2872 242.653 89.9319 245.459C87.5767 248.266 85.5936 250.085 90.8828 250.267C96.172 250.449 105.235 248.237 106.403 243.993L107.57 239.75L107.571 239.748Z" fill="#86D1CD"/>
<path d="M73.6982 226.078C73.6982 226.078 102.734 230.32 107.569 239.748C107.569 239.748 108.195 244.226 111.813 248.871L112.146 250.837C112.146 250.837 108.128 244.642 106.401 243.99C106.401 243.99 111.093 234.294 73.6982 226.076V226.078Z" fill="#6BB7BF"/>
<path d="M111.814 248.871C111.814 248.871 117.152 254.596 116.063 262.853L114.922 262.746C114.922 262.746 114.515 253.925 111.557 249.954C108.599 245.984 111.814 248.871 111.814 248.871Z" fill="#6BB7BF"/>
<path d="M128.767 207.46C128.767 207.46 128.767 204.83 129.142 203.955C129.518 203.081 130.891 199.52 130.891 199.52H136.263C136.263 199.52 137.263 202.769 137.325 203.83C137.386 204.892 137.325 207.46 137.325 207.46H128.767Z" fill="#233862"/>
<path d="M162.879 207.46C162.879 207.46 162.879 204.83 162.504 203.955C162.128 203.081 160.755 199.52 160.755 199.52H155.383C155.383 199.52 154.383 202.769 154.321 203.83C154.26 204.892 154.321 207.46 154.321 207.46H162.879Z" fill="#233862"/>
<path d="M129.439 116.371C129.439 116.371 130.378 145.075 128.974 161.453C127.568 177.831 128.984 200.623 128.984 200.623C128.984 200.623 133.48 203.101 138.351 200.623C138.351 200.623 143.696 168.982 143.661 161.453C143.626 153.433 149.477 117.623 149.477 117.623L129.437 116.371H129.439Z" fill="#F99746"/>
<path d="M162.68 200.62C162.68 200.62 158.186 203.099 153.313 200.62C153.313 200.62 147.97 168.981 148.004 161.451C148.019 158.063 146.985 149.718 145.784 141.209C144.14 129.569 142.187 117.621 142.187 117.621L162.204 114.004C162.204 114.004 161.287 145.074 162.691 161.451C164.097 177.829 162.68 200.62 162.68 200.62Z" fill="#F99746"/>
<path d="M148.004 161.452C148.018 158.064 146.984 149.719 145.783 141.21C147.03 136.127 150.066 131.236 150.066 131.236C153.909 142.013 148.005 161.452 148.005 161.452H148.004Z" fill="#ED7D2B"/>
<path d="M130.745 67.0147C130.745 67.0147 126.322 66.6864 123.705 67.5527C121.09 68.4191 103.729 53.4862 99.8798 54.086C99.8798 54.086 96.4273 55.7488 96.3672 59.684C96.3672 59.684 110.094 78.5326 118.987 83.3943C127.878 88.256 128.488 101.7 128.488 101.7L133.444 97.9924L130.745 67.0147Z" fill="#2A4E96"/>
<path d="M94.7546 35.4125C94.8489 35.6108 103.96 55.5436 103.96 55.5436C103.96 55.5436 99.3465 60.4947 96.3703 59.6868L90.9023 35.1914L94.7546 35.4141V35.4125Z" fill="#B56F40"/>
<path d="M94.7571 35.412C94.7571 35.412 94.71 32.2132 94.3443 31.35C93.8128 30.0968 93.9477 28.5949 92.2914 28.8761C90.635 29.1557 88.7771 30.3813 88.7284 30.9356C88.6634 31.68 89.1624 34.2401 89.7329 34.8269C90.3034 35.4153 91.36 36.3288 91.36 36.3288L94.7571 35.412Z" fill="#B56F40"/>
<path d="M94.7584 35.412C94.7584 35.412 95.55 33.4566 95.9758 32.9072C96.4017 32.3578 94.3991 29.3264 94.2204 29.2402C94.2204 29.2402 93.5328 29.5572 94.287 30.9762C94.7746 31.893 94.0822 32.5968 94.0822 32.5968L94.7567 35.412H94.7584Z" fill="#B56F40"/>
<path d="M141.594 65.1386C141.594 65.1386 145.436 62.9247 148.17 62.5704C150.903 62.216 160.07 41.2316 163.799 40.1035C163.799 40.1035 167.632 40.1035 169.392 43.6258C169.392 43.6258 165.197 66.5641 159.293 74.8002C153.39 83.0363 158.134 96.1617 158.134 96.1617L152.598 94.2226L141.595 65.1386H141.594Z" fill="#2A4E96"/>
<path d="M130.478 61.8275C130.478 61.8275 124.032 62.689 123.17 59.0366C122.309 55.3842 116.537 53.671 117.517 50.4299C118.72 46.4541 116.366 43.2812 118.279 40.4042C120.387 37.2329 123.952 38.0847 125.399 36.1975C126.847 34.3104 129.756 32.2786 133.248 33.6342C136.739 34.9898 138.937 33.5058 141.341 34.9882C143.997 36.6266 143.613 39.3785 145.751 40.4383C147.709 41.4103 147.661 45.0643 146.741 48.1965C146.078 50.4543 148.842 51.9432 145.149 55.0803C143.612 56.3855 144.446 58.8009 139.303 60.1955C136.986 60.823 131.679 60.6653 130.477 61.8275H130.478Z" fill="#233862"/>
<path d="M130.061 58.5227C130.061 58.5227 130.941 64.3157 130.681 67.0319L125.6 72.1813L148.169 71.4059L141.592 65.1382C141.592 65.1382 138.584 57.7083 138.884 54.6996C139.185 51.6893 130.061 58.5227 130.061 58.5227Z" fill="#B56F40"/>
<path d="M130.177 59.325C130.177 59.325 132.686 63.1838 135.941 62.4865C139.195 61.7892 139.255 57.9531 139.255 57.9531L130.177 59.325Z" fill="#99592E"/>
<path d="M135.268 60.9417C132.89 61.3383 127.944 58.9896 127.22 55.0804L126.092 48.9817C125.829 47.5546 126.607 46.2022 127.823 45.9779L136.866 44.3053C138.081 44.081 139.292 45.0644 139.557 46.4915L140.622 52.2456C141.38 56.3433 137.995 60.4882 135.268 60.9417Z" fill="#B56F40"/>
<path d="M162.26 114.924C162.26 114.924 153.846 118.228 145.885 119.701C142.413 120.343 138.571 120.66 135.492 120.813C132.09 120.987 129.622 120.961 129.622 120.961C129.622 120.961 127.882 121.443 127.313 112.526C126.879 105.742 126.828 102.263 125.369 96.1613C124.566 92.8031 123.681 88.3445 121.955 85.5813C118.079 79.3737 122.588 70.6565 124.115 69.6552C124.115 69.6552 126.411 68.2833 130.681 67.0318C130.697 67.1163 133.906 70.3428 136.981 70.203C138.707 69.1205 140.055 68.2216 141.592 65.1381C144.23 64.9609 147.14 64.9528 150.301 65.2048C150.301 65.2048 150.869 66.5181 156.452 90.087C158.664 99.4236 164.778 114.49 162.26 114.922V114.924Z" fill="#2A4E96"/>
<path d="M126.517 51.6309C126.517 51.6309 127.268 46.1287 132.804 45.9142C138.339 45.6996 139.02 46.7659 139.839 47.9964C140.66 49.2268 140.615 42.8015 140.615 42.8015L133.907 42.0879C133.907 42.0879 126.634 44.4724 126.061 45.7793C125.472 47.117 125.636 47.182 125.636 47.182L126.517 51.6309Z" fill="#233862"/>
<path d="M130.679 54.5659C129.749 54.7382 127.849 54.8763 127.223 53.3192C127.033 52.8478 127.046 52.3959 127.257 52.0107C127.489 51.5881 127.948 51.2841 128.512 51.1801L131.373 50.6502C131.917 50.5494 132.325 50.6356 132.588 50.9054C133.031 51.3605 132.909 52.1895 132.837 52.5243C132.588 53.6703 132.068 54.2814 131.197 54.444C131.161 54.4553 130.966 54.5106 130.679 54.5643V54.5659ZM128.546 51.3686C128.039 51.4629 127.629 51.7295 127.424 52.1033C127.242 52.4365 127.233 52.8315 127.4 53.2476C127.72 54.0457 128.442 54.4618 129.544 54.4814C130.383 54.496 131.137 54.2635 131.145 54.2619L131.156 54.2587C131.945 54.1124 132.419 53.55 132.649 52.4853C132.701 52.248 132.839 51.4402 132.45 51.0403C132.236 50.8192 131.885 50.751 131.407 50.8387L128.546 51.3686Z" fill="#2C3A64"/>
<path d="M137.277 53.3444C136.989 53.3981 136.787 53.4143 136.75 53.4176C135.879 53.5769 135.175 53.1933 134.531 52.2115C134.344 51.9238 133.935 51.194 134.183 50.6104C134.331 50.2642 134.682 50.0366 135.227 49.9359L138.088 49.406C138.652 49.3019 139.188 49.4206 139.557 49.7327C139.892 50.0155 140.064 50.4349 140.056 50.942C140.03 52.6195 138.206 53.1705 137.275 53.3428L137.277 53.3444ZM135.263 50.126C134.785 50.2138 134.482 50.4024 134.361 50.6868C134.141 51.1988 134.559 51.9027 134.692 52.1075C135.289 53.0177 135.932 53.3753 136.721 53.229H136.732C136.732 53.229 137.527 53.1737 138.306 52.86C139.328 52.4472 139.853 51.8019 139.866 50.942C139.872 50.4934 139.723 50.1277 139.434 49.8822C139.108 49.6075 138.631 49.5035 138.123 49.5978L135.263 50.1277V50.126Z" fill="#2C3A64"/>
<path d="M132.519 51.8059C132.477 51.814 132.431 51.7962 132.404 51.7588C132.368 51.7068 132.379 51.6352 132.431 51.5995C132.475 51.5686 133.502 50.8599 134.595 51.2029C134.655 51.2224 134.689 51.2858 134.669 51.3459C134.652 51.4061 134.586 51.4402 134.526 51.4207C133.54 51.1118 132.573 51.7799 132.563 51.7864C132.548 51.7962 132.534 51.8027 132.517 51.8059H132.519Z" fill="#2C3A64"/>
<path d="M132.076 57.3322C132.076 57.3322 133.88 56.9973 134.375 56.9079C134.857 56.8185 136.736 56.4707 136.736 56.4707C136.736 56.4707 136.07 58.2701 134.688 58.4911C133.307 58.7122 132.076 57.3338 132.076 57.3338V57.3322Z" fill="#EBF3FA"/>
<path d="M160.318 21.0545C160.318 21.2739 160.756 43.1849 160.756 43.1849C160.756 43.1849 167.061 45.6458 169.39 43.627L163.693 19.1836L160.318 21.0545Z" fill="#B56F40"/>
<path d="M160.319 21.0535C160.319 21.0535 158.975 18.1505 158.93 17.2143C158.865 15.8554 158.093 14.5599 159.707 14.0934C161.321 13.6269 163.526 13.9244 163.811 14.4039C164.193 15.0459 164.853 17.5686 164.594 18.3456C164.336 19.1225 163.778 20.4034 163.778 20.4034L160.319 21.0519V21.0535Z" fill="#B56F40"/>
<path d="M160.318 21.0525C160.318 21.0525 158.756 19.6351 158.135 19.323C157.514 19.0126 158.004 15.4122 158.126 15.2578C158.126 15.2578 158.883 15.2448 158.818 16.8507C158.776 17.8878 159.705 18.2226 159.705 18.2226L160.318 21.0525Z" fill="#B56F40"/>
<path d="M90.746 41.4793L83.1148 26.5666C82.9856 26.3141 82.6761 26.2141 82.4236 26.3434L73.4566 30.932C73.2041 31.0612 73.1041 31.3707 73.2334 31.6232L80.8646 46.5359C80.9938 46.7884 81.3033 46.8884 81.5558 46.7592L90.5228 42.1705C90.7753 42.0413 90.8753 41.7318 90.746 41.4793Z" fill="#F99746"/>
<path d="M98.5194 33.9033C98.4024 33.6741 98.3731 33.4206 98.4284 33.193C98.5454 32.6989 99.085 32.2454 99.9937 32.4193C100.572 32.5298 101.379 33.089 102.398 33.796C104.165 35.02 106.583 36.6991 108.118 36.1107C109.246 35.6783 109.896 34.8087 109.735 33.9488C109.582 33.128 108.574 32.1722 106.239 32.1787C105.962 32.1787 105.736 31.956 105.736 31.6781C105.736 31.4018 105.959 31.1758 106.237 31.1758C109.187 31.1677 110.488 32.5103 110.722 33.7651C110.974 35.1175 110.071 36.4374 108.477 37.0485C106.448 37.8255 103.887 36.0489 101.827 34.6218C101.014 34.0593 100.176 33.4758 99.8051 33.4059C99.532 33.3539 99.415 33.4157 99.4004 33.4352C99.4053 33.4531 99.4686 33.5473 99.6637 33.6026C99.9303 33.679 100.085 33.9553 100.01 34.2219C99.9335 34.4885 99.6572 34.6429 99.3906 34.5681C98.9518 34.443 98.6673 34.1926 98.521 33.9066L98.5194 33.9033Z" fill="#E6A330"/>
<path d="M93.8886 24.8505C94.0056 25.0797 94.1942 25.2503 94.412 25.3397C94.8817 25.5332 95.5644 25.3609 95.9561 24.5221C96.2048 23.9874 96.2227 23.0072 96.2455 21.767C96.2845 19.6182 96.3397 16.6745 97.7132 15.774C98.7243 15.1124 99.8084 15.0929 100.413 15.7269C100.99 16.3315 101.175 17.7067 99.8036 19.597C99.641 19.8214 99.6914 20.1351 99.9157 20.2976C100.14 20.4601 100.454 20.4098 100.616 20.1854C102.347 17.7977 102.021 15.9577 101.14 15.0344C100.19 14.0397 98.5926 13.999 97.1638 14.9353C95.3466 16.1267 95.2897 19.2443 95.2442 21.7491C95.2263 22.7374 95.2068 23.7582 95.0475 24.0995C94.9305 24.3515 94.8102 24.41 94.7875 24.4116C94.7761 24.397 94.7371 24.2913 94.8053 24.1011C94.8996 23.8411 94.7647 23.5534 94.5046 23.4591C94.2446 23.3648 93.9569 23.4997 93.8626 23.7598C93.7065 24.1889 93.7439 24.566 93.8902 24.8521L93.8886 24.8505Z" fill="#E6A330"/>
<path d="M89.5869 34.1568L88.376 31.7901C88.6068 32.2404 93.896 29.6299 93.6652 29.1797L94.8761 31.5463C94.5884 30.9839 89.2992 33.5944 89.5869 34.1568Z" fill="#E6A330"/>
<path d="M112.022 29.433C103.901 33.5893 95.8391 34.0655 94.0138 30.4993C92.1884 26.9331 97.2906 20.6719 105.411 16.5156C106.523 18.6888 110.406 26.2764 112.022 29.433Z" fill="#FFB93E"/>
<path d="M83.9131 28.1141C85.1533 27.4785 87.5134 29.6095 89.1844 32.8717C90.8537 36.134 91.2016 39.2939 89.9614 39.9294C88.9438 37.9415 85.3922 31.0009 83.9147 28.1141H83.9131Z" fill="#FFB93E"/>
<path d="M111.519 29.9936L104.66 16.5902C104.496 16.27 104.622 15.8766 104.943 15.7125C105.263 15.5483 105.656 15.6751 105.82 15.9953L112.68 29.3987C112.844 29.7189 112.717 30.1122 112.397 30.2764C112.077 30.4406 111.683 30.3138 111.519 29.9936Z" fill="#E6A330"/>
<path d="M86.4648 39.1633L82.4863 31.3887L80.0004 32.6608L83.9789 40.4355L86.4648 39.1633Z" fill="#FFB93E"/>
<path d="M90.6463 29.4691C91.6785 29.0254 93.1251 28.7539 93.5022 29.1814C93.8793 29.6089 92.9154 31.3904 91.9288 32.0097C91.4574 32.3055 89.0778 32.4599 88.7771 31.8065C88.5398 31.2896 88.5268 30.3793 90.6447 29.4691H90.6463Z" fill="#B56F40"/>
<path d="M177.409 209.266H114.156V274.456H177.409V209.266Z" fill="#E6A330"/>
<path d="M176.558 215.365H115.004C112.73 215.365 110.887 213.522 110.887 211.248C110.887 208.974 112.73 207.131 115.004 207.131H176.558C178.832 207.131 180.675 208.974 180.675 211.248C180.675 213.522 178.832 215.365 176.558 215.365Z" fill="#FFB93E"/>
<path d="M304.415 275.196H26.643C26.2854 275.196 25.9912 274.904 25.9912 274.544C25.9912 274.187 26.2838 273.893 26.643 273.893H304.416C304.774 273.893 305.068 274.185 305.068 274.544C305.068 274.902 304.776 275.196 304.416 275.196H304.415Z" fill="#2E3552"/>
</svg>
