<svg width="63" height="62" viewBox="0 0 63 62" fill="none" xmlns="http://www.w3.org/2000/svg">
<g id="Group 855" filter="url(#filter0_d_98_9075)">
<path id="Vector" d="M31.0613 54C46.0068 54 58.1226 41.9117 58.1226 27C58.1226 12.0883 46.0068 0 31.0613 0C16.1158 0 4 12.0883 4 27C4 41.9117 16.1158 54 31.0613 54Z" fill="#E4EAF1"/>
<path id="Vector_2" d="M51.9648 38.7624C51.8514 38.7045 51.7238 38.6803 51.5971 38.6925H50.1644C50.0974 38.7046 50.0282 38.6938 49.9681 38.6618C49.908 38.6298 49.8605 38.5785 49.8333 38.5162C49.5547 37.8809 49.0374 37.649 48.3752 37.6458C47.8292 37.6458 47.2832 37.6458 46.7372 37.6458H46.7197C46.5828 37.6458 46.4984 37.6014 46.4729 37.4997L44.4529 36.3879C44.4529 36.6246 44.3781 36.7151 44.1345 36.7135C41.8566 36.6897 39.5755 36.785 37.2896 36.6437C36.6529 36.6024 36.0161 36.4848 35.3794 36.3864C35.1247 36.3451 35.1502 36.2514 35.2902 36.0973C35.3876 35.9884 35.479 35.8745 35.5641 35.7558C36.9241 33.8848 37.8901 31.7583 38.4039 29.5045C38.7875 27.8941 38.9515 26.255 38.7048 24.6144C38.1842 21.1552 36.5319 18.3107 33.7796 16.1507C30.857 13.8557 27.5125 12.9107 23.8115 13.3713C20.4018 13.7937 17.5444 15.3089 15.3111 17.9199C12.8501 20.7978 11.7469 24.1538 12.1385 27.9163C12.4267 30.6767 13.2321 33.3068 14.7762 35.659C15.5849 36.8898 16.6387 37.846 18.0395 38.3796C18.3578 38.5003 18.6874 38.5734 19.0089 38.6972H11.6753C11.5686 38.6972 11.4604 38.6972 11.3569 38.6972C11.0799 38.7179 10.8953 38.8799 10.8985 39.0927C10.9017 39.3055 11.0672 39.4548 11.3633 39.4628H51.5286C51.6273 39.4628 51.7244 39.4628 51.8215 39.4628C51.9019 39.4571 51.9782 39.4252 52.0386 39.372C52.0991 39.3188 52.1404 39.2473 52.1561 39.1684C52.1718 39.0896 52.1612 39.0077 52.1257 38.9355C52.0903 38.8633 52.0321 38.8047 51.96 38.7687L51.9648 38.7624ZM35.9541 23.5884C36.2455 24.5775 36.3918 25.6036 36.3886 26.6346C36.3875 28.0958 36.0931 29.542 35.5227 30.8879C35.4144 31.1436 35.3046 31.1706 35.0642 31.0467C32.5247 29.8132 29.9831 28.5871 27.4393 27.3684C27.1926 27.2508 27.0875 27.1238 27.1798 26.8585C27.2109 26.7866 27.2209 26.7072 27.2085 26.6298C27.0923 26.2344 27.3454 26.1534 27.6447 26.0501C30.2574 25.1512 32.868 24.2454 35.4765 23.3327C35.8426 23.212 35.8442 23.2151 35.9541 23.5884ZM30.6644 17.048C32.917 18.2556 34.6706 20.2173 35.6166 22.5878C35.6962 22.7831 35.7009 22.8864 35.4574 22.9689C32.7523 23.8997 30.0494 24.8372 27.3486 25.7817L27.1607 25.8452C27.0604 25.8691 27.0127 25.8452 26.9808 25.7849C26.8586 25.575 26.6964 25.391 26.5033 25.2433C26.3728 25.1385 26.4396 25.0368 26.4906 24.9257C26.7739 24.3391 27.0578 23.7535 27.3422 23.1691C28.3079 21.1753 29.2726 19.1815 30.2362 17.1878C30.3444 16.9686 30.4208 16.9162 30.6644 17.048ZM22.4441 16.1713C24.8607 15.4552 27.4527 15.6098 29.7666 16.6081C30.0069 16.7113 30.0372 16.8257 29.9258 17.0528C28.8879 19.1704 27.8553 21.2944 26.828 23.4248C26.6147 23.8615 26.4014 24.2983 26.1913 24.7398C26.1101 24.913 26.0114 25.0114 25.8077 24.9384C25.7517 24.9229 25.6938 24.9154 25.6357 24.9161C25.0515 24.8812 25.0547 24.8812 24.8557 24.3126C23.9664 21.7619 23.0755 19.2117 22.183 16.6621C22.0525 16.2825 22.0573 16.2873 22.4441 16.1713ZM15.9176 21.3696C17.1212 19.1757 19.0495 17.4655 21.3744 16.5302C21.6339 16.4238 21.7341 16.4604 21.8281 16.7351C22.7561 19.4256 23.6985 22.1113 24.6361 24.7986L24.6997 24.9812C24.6997 25.0797 23.9675 25.6721 23.8847 25.6483C23.8295 25.6308 23.7762 25.6079 23.7255 25.58L16.072 21.9001C15.7218 21.7301 15.7234 21.7285 15.9239 21.3696H15.9176ZM15.0213 29.7777C14.7097 28.7693 14.5587 27.7183 14.574 26.6632C14.551 25.1772 14.844 23.7032 15.4336 22.3384C15.5244 22.1208 15.6135 22.0684 15.8427 22.1796C18.4056 23.4258 20.9727 24.6647 23.5441 25.8961C23.7478 25.9945 23.872 26.0883 23.7717 26.3328C23.739 26.4151 23.7312 26.5051 23.7494 26.5917C23.8274 26.9395 23.665 27.0682 23.3467 27.181C20.6777 28.0958 18.0119 29.0217 15.3493 29.9588C15.1471 30.0318 15.0803 29.9604 15.0277 29.7777H15.0213ZM20.2744 36.2053C18.0276 34.9874 16.2784 33.0237 15.3302 30.6544C15.2426 30.44 15.2872 30.3527 15.5053 30.278C18.0098 29.414 20.5116 28.5447 23.0108 27.6701L23.786 27.3969C23.8799 27.3969 24.5358 28.0815 24.5199 28.1482C24.5015 28.2133 24.4758 28.2762 24.4434 28.3356C23.2007 30.9107 21.9591 33.4852 20.7186 36.0592C20.6071 36.2974 20.5196 36.334 20.2887 36.2132L20.2744 36.2053ZM28.595 37.055C27.6143 37.3387 26.6008 37.4946 25.58 37.5188C24.0555 37.521 22.5461 37.2169 21.142 36.6246C20.9525 36.5452 20.8905 36.4658 20.9923 36.2593C22.2563 33.6663 23.5138 31.0721 24.765 28.477C24.8334 28.3324 24.913 28.2657 25.0834 28.3181C25.212 28.3653 25.3502 28.3805 25.4861 28.3626C25.8284 28.2721 25.9223 28.4706 26.013 28.7311C26.9342 31.3781 27.8601 34.0252 28.7908 36.6722C28.8831 36.8946 28.8497 36.9851 28.6093 37.055H28.595ZM30.8681 36.0894C30.432 36.326 29.9815 36.5341 29.5262 36.7342C29.3097 36.8279 29.2078 36.7961 29.1219 36.5547C28.5504 34.8918 27.9662 33.2337 27.3852 31.574C27.0254 30.5464 26.6688 29.5188 26.2995 28.4944C26.2263 28.2911 26.2263 28.1434 26.4396 28.0386C26.5121 28.0084 26.5748 27.9589 26.6211 27.8957C26.8487 27.497 27.1305 27.6193 27.4488 27.7734C29.9448 28.9836 32.4435 30.188 34.9448 31.3866C35.1565 31.4882 35.182 31.5867 35.0738 31.7868C34.8049 32.2715 34.505 32.7383 34.176 33.1845C33.9802 33.4545 33.942 33.4529 33.7303 33.1972C33.2761 32.6221 32.7178 32.1372 32.0843 31.7678C31.7219 31.55 31.307 31.4348 30.884 31.4342C29.9799 31.4628 29.3654 31.9488 28.9961 32.7271C28.6427 33.4735 28.9293 34.1295 29.4339 34.706C29.8402 35.152 30.326 35.5187 30.8665 35.7876C31.1133 35.9115 31.0703 35.9861 30.8824 36.0894H30.8681ZM30.2728 34.2867C30.0037 34.0421 29.7809 33.761 29.7729 33.5101C29.7733 33.3258 29.8177 33.1444 29.9027 32.9808C29.9876 32.8172 30.1106 32.6763 30.2613 32.5698C30.4119 32.4634 30.5859 32.3944 30.7688 32.3687C30.9516 32.343 31.1379 32.3613 31.3122 32.4221C31.9713 32.6762 32.4854 33.14 32.9534 33.6498C33.3912 34.1263 33.3832 34.1438 32.9057 34.5869C32.694 34.7854 32.4536 34.9554 32.2466 35.1602C32.0397 35.3651 31.8965 35.327 31.68 35.2111C31.179 34.9618 30.7111 34.6513 30.2871 34.2867H30.2728ZM44.0119 37.6442C43.4373 37.6442 42.8642 37.6442 42.2912 37.6442C41.6098 37.6442 41.0718 37.8729 40.7837 38.5273C40.7121 38.6861 40.5879 38.6861 40.4478 38.6861H31.8917C32.1862 38.5273 32.5014 38.4241 32.7974 38.2732C33.3138 37.9997 33.79 37.6566 34.2126 37.2535C34.2674 37.1932 34.3382 37.1496 34.4167 37.1277C34.4953 37.1058 34.5785 37.1065 34.6567 37.1297C36.2818 37.4952 37.9471 37.6521 39.6121 37.5966C40.9747 37.5744 42.3389 37.5966 43.7015 37.5871H44.0199C44.0295 37.6109 44.0279 37.6284 44.0263 37.6427L44.0119 37.6442ZM40.3348 21.0805C41.0368 21.0805 41.7388 21.0805 42.4408 21.0805C42.6207 21.0805 42.8196 21.0694 42.9279 20.9217C43.1237 20.6628 43.3768 20.6597 43.6554 20.6708C43.8973 20.6708 44.1425 20.6708 44.386 20.6708C45.1819 20.6851 45.0737 20.5421 45.0817 21.395C45.0817 21.4982 45.1135 21.6348 44.9925 21.6825C44.7872 21.7635 44.8015 21.9271 44.8015 22.0922C44.8015 22.5497 44.8015 23.0055 44.8015 23.4629C44.8015 23.6598 44.776 23.8044 44.5293 23.8155H46.0559C45.8266 23.8155 45.7869 23.6852 45.7916 23.4978C45.8001 23.0891 45.8001 22.6809 45.7916 22.2733C45.7916 22.0462 45.8824 21.7762 45.5592 21.6587C45.4971 21.6364 45.5115 21.538 45.5115 21.4697C45.5115 21.295 45.5115 21.1202 45.5115 20.9455C45.4987 20.7375 45.5958 20.674 45.7916 20.6771C46.2692 20.6771 46.7467 20.6771 47.2243 20.6771C47.2871 20.6698 47.3508 20.6788 47.4091 20.7033C47.4674 20.7277 47.5184 20.7669 47.557 20.8169C47.6309 20.9082 47.7261 20.98 47.8344 21.026C47.9427 21.072 48.0606 21.0907 48.1778 21.0805C48.8702 21.0805 49.5611 21.0805 50.2472 21.0805C50.7025 21.0805 50.9953 20.8169 50.9906 20.4341C50.9858 20.0514 50.7072 19.7988 50.2599 19.7988C49.5579 19.7877 48.8559 19.7988 48.1539 19.7988C48.0464 19.7902 47.9385 19.8072 47.8388 19.8483C47.7392 19.8895 47.6508 19.9536 47.5809 20.0355C47.536 20.0926 47.4771 20.1372 47.4099 20.1651C47.3427 20.1929 47.2695 20.2029 47.1972 20.1943C45.9301 20.1943 44.6635 20.1943 43.3975 20.1943C43.3257 20.2009 43.2533 20.1899 43.1867 20.1622C43.1201 20.1345 43.0613 20.091 43.0155 20.0355C42.9485 19.9569 42.8642 19.8948 42.7692 19.854C42.6742 19.8133 42.5711 19.7949 42.4679 19.8004C41.7579 19.8004 41.0464 19.7925 40.3348 19.8004C39.9177 19.8004 39.6057 20.0958 39.6073 20.4468C39.6264 20.8201 39.9098 21.0758 40.3491 21.0805H40.3348Z" fill="#5943BE"/>
<path id="Vector_3" d="M46.4795 37.4935L44.4595 36.3817C44.4595 32.7944 44.4595 29.2066 44.4595 25.6183C44.4639 25.5465 44.4539 25.4745 44.4301 25.4066C44.4063 25.3387 44.3693 25.2762 44.321 25.2228C44.1332 25.0132 44.1013 24.2556 44.2494 24.0237C44.2795 23.9673 44.3233 23.9192 44.3766 23.8837C44.4299 23.8482 44.4912 23.8265 44.555 23.8204H46.0816C46.1616 23.8186 46.2398 23.8448 46.3025 23.8944C46.3653 23.944 46.4088 24.0138 46.4254 24.092C46.4795 24.489 46.5846 24.9036 46.3172 25.2705C46.2461 25.3755 46.2129 25.5015 46.2232 25.6278V36.477C46.2232 36.5834 46.2073 36.7026 46.2901 36.782C46.3647 36.8594 46.4202 36.9531 46.452 37.0557C46.4837 37.1583 46.491 37.2669 46.4732 37.3728C46.4685 37.4131 46.4706 37.4539 46.4795 37.4935Z" fill="#FF6533"/>
<path id="Vector_4" d="M47.5071 16.9984C47.3667 16.6549 47.1539 16.3456 46.8831 16.0916C46.6122 15.8375 46.2897 15.6447 45.9375 15.5261C46.119 15.4419 46.2368 15.3911 46.3514 15.3339C46.8289 15.0893 47.1346 14.6796 47.3654 14.2094C47.402 14.1364 47.3988 14.0125 47.5086 14.0157C47.5946 14.0157 47.6057 14.1285 47.6312 14.1967C47.7181 14.4706 47.868 14.7204 48.0689 14.9262C48.2699 15.1319 48.5163 15.2879 48.7885 15.3816C48.8553 15.4038 48.9604 15.4197 48.9477 15.5166C48.9349 15.6134 48.8474 15.5976 48.7885 15.6262C48.4938 15.7578 48.2285 15.9471 48.0084 16.1828C47.7883 16.4185 47.6179 16.6958 47.5071 16.9984Z" fill="#FF6533"/>
<path id="Vector_5" d="M14.9768 10.8125C15.1153 11.0809 15.2124 11.289 15.3302 11.4907C15.5207 11.7874 15.8098 12.0078 16.1468 12.1133C16.2694 12.1593 16.3903 12.2403 16.1866 12.3356C15.9094 12.4554 15.6598 12.6308 15.4536 12.8511C15.2474 13.0713 15.0888 13.3316 14.9879 13.6157C14.8597 13.2931 14.6622 13.0024 14.4091 12.7642C14.1561 12.526 13.8537 12.3461 13.5234 12.2372C13.8669 12.1296 14.1796 11.9418 14.4356 11.6892C14.6568 11.4414 14.7857 11.1381 14.9768 10.8125Z" fill="#5943BE"/>
<path id="Vector_6" d="M42.8281 17.1005C43.0805 16.998 43.3076 16.8419 43.4935 16.6431C43.6447 16.4435 43.7779 16.2309 43.8915 16.0078C44.0204 16.092 44.0284 16.219 44.0745 16.3255C44.1425 16.4765 44.24 16.6125 44.3614 16.7254C44.4827 16.8384 44.6255 16.9259 44.7813 16.983C44.8434 17.0068 44.9262 17.0275 44.9405 17.1021C44.9548 17.1768 44.8545 17.1958 44.8004 17.226C44.4607 17.3999 44.186 17.6783 44.0172 18.0201C43.9918 18.0741 43.944 18.2583 43.858 18.0852C43.6411 17.6466 43.2765 17.2981 42.8281 17.1005Z" fill="#5943BE"/>
<path id="Vector_7" d="M11.1419 18.7038C11.0521 18.448 10.9087 18.2143 10.7213 18.0182C10.5338 17.8221 10.3065 17.6681 10.0547 17.5666C10.6023 17.3697 10.8936 16.9472 11.1339 16.4453C11.1664 16.48 11.1947 16.5184 11.2183 16.5597C11.2801 16.7652 11.3891 16.9534 11.5367 17.1095C11.6843 17.2656 11.8663 17.3851 12.0684 17.4586C12.1559 17.4904 12.2832 17.565 12.1066 17.646C11.8827 17.7484 11.6818 17.8949 11.5161 18.0767C11.3503 18.2584 11.223 18.4717 11.1419 18.7038Z" fill="#FF6533"/>
<path id="Vector_8" d="M18.5063 13.6957C18.4359 13.5017 18.323 13.3258 18.176 13.1808C18.029 13.0357 17.8514 12.9251 17.6562 12.8571C17.9894 12.7174 18.2619 12.4641 18.4251 12.1424C18.4824 12.028 18.5572 12.0852 18.5843 12.1678C18.6331 12.3001 18.7096 12.4205 18.8087 12.521C18.9077 12.6215 19.0272 12.6998 19.1589 12.7507C19.2847 12.7983 19.2656 12.8745 19.1589 12.9285C19.0049 13.0073 18.868 13.1155 18.756 13.2472C18.644 13.3788 18.5591 13.5312 18.5063 13.6957Z" fill="#FF6533"/>
<path id="Vector_9" d="M46.7436 37.6439H46.7261L44.0391 37.5915L44.1393 36.7084L44.4593 36.3828L46.4793 37.4978L46.7436 37.6439Z" fill="#5943BE"/>
<path id="Vector_10" d="M25.5271 28.1101C26.3404 28.1101 26.9996 27.4524 26.9996 26.641C26.9996 25.8296 26.3404 25.1719 25.5271 25.1719C24.7139 25.1719 24.0547 25.8296 24.0547 26.641C24.0547 27.4524 24.7139 28.1101 25.5271 28.1101Z" fill="#FF6533"/>
</g>
<defs>
<filter id="filter0_d_98_9075" x="0" y="0" width="62.123" height="62" filterUnits="userSpaceOnUse" color-interpolation-filters="sRGB">
<feFlood flood-opacity="0" result="BackgroundImageFix"/>
<feColorMatrix in="SourceAlpha" type="matrix" values="0 0 0 0 0 0 0 0 0 0 0 0 0 0 0 0 0 0 127 0" result="hardAlpha"/>
<feOffset dy="4"/>
<feGaussianBlur stdDeviation="2"/>
<feComposite in2="hardAlpha" operator="out"/>
<feColorMatrix type="matrix" values="0 0 0 0 0 0 0 0 0 0 0 0 0 0 0 0 0 0 0.05 0"/>
<feBlend mode="normal" in2="BackgroundImageFix" result="effect1_dropShadow_98_9075"/>
<feBlend mode="normal" in="SourceGraphic" in2="effect1_dropShadow_98_9075" result="shape"/>
</filter>
</defs>
</svg>
