<svg width="31" height="30" viewBox="0 0 31 30" fill="none" xmlns="http://www.w3.org/2000/svg">
<g id="material-symbols:play-circle">
<path id="Vector" d="M12.1464 20.556L20.7933 14.9973L12.1464 9.43853V20.556ZM15.2346 27.35C13.5258 27.35 11.9199 27.0255 10.417 26.3766C8.91408 25.7277 7.60675 24.8477 6.49501 23.7368C5.38326 22.6251 4.50334 21.3177 3.85523 19.8148C3.20712 18.3119 2.88266 16.706 2.88184 14.9973C2.88184 13.2885 3.2063 11.6826 3.85523 10.1797C4.50416 8.67678 5.38409 7.36945 6.49501 6.2577C7.60675 5.14596 8.91408 4.26603 10.417 3.61793C11.9199 2.96982 13.5258 2.64535 15.2346 2.64453C16.9434 2.64453 18.5492 2.969 20.0521 3.61793C21.555 4.26686 22.8624 5.14678 23.9741 6.2577C25.0859 7.36945 25.9662 8.67678 26.6151 10.1797C27.2641 11.6826 27.5881 13.2885 27.5873 14.9973C27.5873 16.706 27.2628 18.3119 26.6139 19.8148C25.965 21.3177 25.085 22.6251 23.9741 23.7368C22.8624 24.8486 21.555 25.7289 20.0521 26.3778C18.5492 27.0267 16.9434 27.3508 15.2346 27.35Z" fill="#5943BE"/>
</g>
</svg>
