<svg width="46" height="46" viewBox="0 0 46 46" fill="none" xmlns="http://www.w3.org/2000/svg">
<g id="Isolation_Mode" clip-path="url(#clip0_98_8120)">
<path id="Vector" d="M0.0185185 4.2775C0.222222 3.42644 0.537037 2.6297 1.22222 2.01403C2.05556 1.25351 3.05556 1 4.16667 1C9.85185 1 15.5185 1 21.2037 1C24.4074 1 27.6111 1 30.8148 1C32.2037 1 33.3519 1.45269 34.2037 2.53916C34.7593 3.24536 35 4.0421 35 4.91127C35 11.6292 35 18.3472 35 25.0652C35 25.21 34.963 25.373 34.8704 25.4817C33.6667 26.8941 32.463 28.2884 31.2407 29.7008C31.2407 29.7189 31.1852 29.737 31.0926 29.7913V29.2481C31.0926 22.1861 31.0926 15.124 31.0926 8.08013C31.0926 6.99366 30.7778 6.08828 29.8704 5.41829C29.2963 5.00181 28.6296 4.83884 27.9444 4.83884C20.9815 4.83884 14.0185 4.83884 7.07407 4.83884C5.16667 4.83884 3.92593 6.08827 3.92593 7.93526C3.92593 16.6089 3.92593 25.2825 3.92593 33.938C3.92593 35.8574 5.16667 37.0525 7.12963 37.0706C9.81482 37.0706 12.5 37.0706 15.1852 37.0706C15.537 37.0706 15.6852 37.1793 15.8889 37.469C16.4074 38.1933 16.9815 38.8995 17.5926 39.5514C18.0556 40.0584 18.6296 40.4568 19.2778 41C19 41 18.8519 41 18.6852 41C13.8889 41 9.09259 40.9819 4.31482 41C2.05556 41 0.37037 39.6419 0.0555556 37.6501C0.0555556 37.632 0.0185185 37.5957 0 37.5776C0 26.4776 0 15.3594 0 4.25939L0.0185185 4.2775Z" fill="#324367"/>
<path id="Vector_2" d="M27.8445 37.0194C28.6105 36.1236 29.3635 35.2407 30.1165 34.3579C31.9472 32.2157 33.7648 30.0735 35.5954 27.9442C36.2706 27.1652 37.1015 26.8407 38.1142 27.0744C39.6592 27.4379 40.4252 29.3594 39.5034 30.6447C38.8542 31.5406 38.1012 32.3715 37.3741 33.2154C34.9463 36.0717 32.5054 38.928 30.0646 41.7843C29.026 43.0047 27.6108 43.1085 26.4034 42.0699C24.5987 40.5119 22.7811 38.9539 20.9764 37.4089C20.3532 36.8766 19.9637 36.2145 20.0027 35.3706C20.0416 34.4488 20.496 33.7607 21.301 33.3452C22.1059 32.9427 22.9498 32.9427 23.6639 33.488C24.6247 34.2151 25.5205 35.033 26.4423 35.812C26.9097 36.2015 27.3641 36.604 27.8445 37.0065V37.0194Z" fill="#324367"/>
<path id="Vector_3" d="M17.2897 13.6534C14.4793 13.6534 11.6689 13.6534 8.85848 13.6534C7.75245 13.6534 7.00906 13.0369 6.84587 12.0034C6.68269 10.988 7.46235 9.97263 8.49585 9.86384C8.65904 9.86384 8.82222 9.8457 8.98541 9.8457C14.5337 9.8457 20.082 9.8457 25.6121 9.8457C26.7907 9.8457 27.5522 10.4078 27.7335 11.4232C27.933 12.5292 27.1171 13.5808 25.9929 13.6171C24.9231 13.6534 23.8352 13.6171 22.7655 13.6171C20.9342 13.6171 19.121 13.6171 17.2897 13.6171V13.6534Z" fill="#324367"/>
<path id="Vector_4" d="M17.2539 19.9971C14.4435 19.9971 11.633 19.9971 8.82264 19.9971C7.75287 19.9971 7.00947 19.3625 6.84629 18.3471C6.6831 17.3317 7.44463 16.3164 8.47814 16.2076C8.64132 16.2076 8.80451 16.1895 8.96769 16.1895C14.516 16.1895 20.0643 16.1895 25.5944 16.1895C26.7367 16.1895 27.4982 16.7334 27.6977 17.6762C27.9515 18.8548 27.0993 19.9608 25.8845 19.979C24.1076 19.9971 22.3307 19.979 20.5538 19.979C19.4478 19.979 18.3418 19.979 17.2357 19.979L17.2539 19.9971Z" fill="#324367"/>
<path id="Vector_5" d="M17.3316 26.2692C14.5031 26.2692 11.6745 26.2692 8.86411 26.2692C7.77621 26.2692 7.05094 25.6708 6.86962 24.7098C6.68831 23.6945 7.41357 22.7154 8.44708 22.5884C8.64653 22.5703 8.86411 22.5703 9.08169 22.5703C14.5574 22.5703 20.0513 22.5703 25.5271 22.5703C25.8172 22.5703 26.1073 22.5703 26.3793 22.6428C27.2677 22.8604 27.8661 23.6945 27.7754 24.5829C27.6848 25.5258 26.9595 26.2329 25.9985 26.2692C25.2551 26.3054 24.5117 26.2692 23.7502 26.2692C21.6107 26.2692 19.4711 26.2692 17.3316 26.2692Z" fill="#324367"/>
<path id="Vector_6" d="M20.9778 29.0179C20.3332 29.4481 19.5996 29.7886 19.0884 30.2725C18.4438 30.8998 17.9325 31.6167 17.399 32.3157C17.2212 32.5666 17.0656 32.71 16.6655 32.71C14.3093 32.6921 11.9309 32.71 9.5747 32.71C8.24101 32.71 7.30742 32.1723 7.06291 31.2762C6.77395 30.3084 7.50748 29.3405 8.7078 29.0896C8.97454 29.0358 9.24128 29 9.53025 29C13.2646 29 16.9989 29 20.7333 29C20.8222 29 20.9111 29 21 29L20.9778 29.0179Z" fill="#324367"/>
<path id="Vector_7" d="M24.6846 28.6668C25.156 28.6668 25.6637 28.6124 26.1714 28.6668C27.3318 28.8299 28.0027 29.8997 27.6763 31.0964C26.6609 30.2805 25.6818 29.4645 24.7027 28.6668H24.6846Z" fill="#324367"/>
</g>
<defs>
<clipPath id="clip0_98_8120">
<rect width="46" height="46" fill="white"/>
</clipPath>
</defs>
</svg>
