<svg width="44" height="45" viewBox="0 0 44 45" fill="none" xmlns="http://www.w3.org/2000/svg">
<g id="Isolation_Mode" clip-path="url(#clip0_98_8140)">
<path id="Vector" d="M16.7709 0.0034222C17.515 0.316335 18.2929 0.564608 18.9946 0.95685C20.429 1.76043 21.43 3.00621 22.1317 4.59721C20.5744 5.04087 19.0397 5.48012 17.4782 5.92525C17.4359 5.81507 17.3879 5.71371 17.3568 5.60646C16.922 4.07716 16.4956 2.54639 16.0537 1.01855C15.9323 0.596927 15.9591 0.248757 16.3516 0.00195312C16.4914 0.00195312 16.6311 0.00195312 16.7709 0.00195312V0.0034222Z" fill="white"/>
<path id="Vector_2" d="M18.7535 44.6078C16.3223 42.0781 13.9152 39.5733 11.4346 36.9922C11.7734 36.6675 12.1532 36.3267 12.5076 35.9594C14.0606 34.3493 14.7312 32.3778 14.8569 30.1184C14.9515 28.426 15.1971 26.7395 15.4399 25.0604C15.5882 24.0408 15.9482 23.08 16.8179 22.4616C17.898 21.6947 19.0571 21.6609 20.2529 22.1428C20.3305 22.1736 20.4082 22.2089 20.4858 22.2397C20.8487 22.3837 21.244 22.6937 21.5645 22.6246C21.8878 22.5541 22.1405 22.1119 22.4158 21.8255C23.8206 20.3667 25.2226 18.9049 26.6273 17.4476C26.8448 17.2228 27.0692 17.0025 27.3064 16.7998C28.7578 15.5672 30.0397 16.3076 30.7767 17.5695C31.2017 18.2982 31.2356 19.1047 31.1551 19.923C32.6305 20.183 33.5764 21.0983 33.7162 22.4292C33.7515 22.7701 33.7359 23.1344 33.6597 23.4664C33.5877 23.7808 33.6851 23.8968 33.935 24.0291C34.9247 24.5521 35.5657 25.3586 35.5981 26.55C35.6094 26.9731 35.4513 27.3991 35.4033 27.8281C35.3821 28.022 35.3765 28.2703 35.4725 28.4157C36.8462 30.4944 36.4043 32.3851 34.9077 34.0511C32.2902 36.9613 29.0896 38.9049 25.5501 40.3093C23.5721 41.0953 21.6704 42.0281 20.0256 43.4443C19.5851 43.8233 19.1644 44.2288 18.7535 44.6049V44.6078Z" fill="white"/>
<path id="Vector_3" d="M12.5565 9.68159C14.5938 9.08221 16.5901 8.49458 18.5878 7.90548C19.675 7.58522 20.7607 7.2635 21.8478 6.94471C22.548 6.74051 22.8106 6.95646 22.8106 7.71303C22.8106 8.87507 22.6059 9.9945 22.1414 11.0537C22.0158 11.3402 22.037 11.54 22.2318 11.7912C23.3231 13.2074 24.3961 14.6397 25.4945 16.0926C23.7749 17.7512 22.0694 19.3966 20.3442 21.061C19.2415 19.6022 18.1318 18.1993 17.0984 16.739C16.6875 16.1573 16.3134 15.9883 15.599 16.0941C11.8407 16.6567 7.96943 13.9683 6.96138 10.1473C6.17639 7.17241 6.73548 4.48548 8.66405 2.12615C9.17231 1.50326 9.61139 1.58994 9.88952 2.34945C10.7296 4.65442 11.5682 6.96234 12.4068 9.26878C12.4506 9.38924 12.4958 9.50971 12.5593 9.68012L12.5565 9.68159Z" fill="white"/>
</g>
<defs>
<clipPath id="clip0_98_8140">
<rect width="43.013" height="44.7568" fill="white"/>
</clipPath>
</defs>
</svg>
