<svg width="46" height="46" viewBox="0 0 46 46" fill="none" xmlns="http://www.w3.org/2000/svg">
<g id="Layer_1" clip-path="url(#clip0_98_8129)">
<path id="Vector" d="M19.9992 0C20.6806 0.24787 21.4151 0.4036 22.0328 0.761778C23.4084 1.5586 24.2312 2.79016 24.4972 4.37341C24.5245 4.53563 24.5492 4.69785 24.5777 4.86007C24.5803 4.87305 24.5907 4.88473 24.6192 4.93404C25.612 4.93404 26.6255 4.93404 27.6391 4.93404C28.7707 4.93404 29.2314 5.40123 29.2327 6.54584C29.2327 6.75478 29.2327 6.96242 29.2327 7.24663C29.6337 7.24663 30.0153 7.2648 30.3955 7.24403C32.2292 7.13892 33.5542 8.49636 33.5438 10.4015C33.5114 15.9909 33.5361 21.5803 33.5257 27.1697C33.5257 27.5045 33.5971 27.6537 33.9487 27.7524C38.1028 28.919 40.9202 32.859 40.6698 37.1169C40.4115 41.5111 37.2165 45.0825 32.9067 45.7911C28.6137 46.4983 24.3272 44.0391 22.7933 39.9681C22.6557 39.6034 22.4883 39.4788 22.0925 39.4801C17.5192 39.4957 12.946 39.484 8.37401 39.4944C7.09573 39.497 6.08219 39.048 5.53324 37.8592C5.33339 37.4284 5.23995 36.9093 5.23865 36.4304C5.22178 27.7173 5.22308 19.0055 5.22957 10.2924C5.23086 8.42109 6.4183 7.25831 8.29225 7.24663C8.67898 7.24403 9.06441 7.24663 9.52122 7.24663C9.52122 6.93906 9.51733 6.66134 9.52122 6.38363C9.5342 5.45574 10.0468 4.93923 10.9695 4.93534C12.0285 4.93015 13.0887 4.93534 14.1749 4.93534C14.2178 4.66151 14.2463 4.41235 14.2969 4.16707C14.7447 2.03098 16.3772 0.463296 18.5432 0.0804604C18.6132 0.0674829 18.6794 0.0285505 18.7469 0.0025955C19.1648 0.0025955 19.584 0.0025955 20.0018 0.0025955L19.9992 0ZM29.234 10.8712C29.234 11.1295 29.2366 11.3657 29.234 11.6019C29.221 12.483 28.7149 13.0047 27.8428 13.0047C22.195 13.0086 16.5472 13.0086 10.8981 13.0047C10.0572 13.0047 9.54328 12.4792 9.51992 11.6291C9.51344 11.38 9.51992 11.1308 9.51992 10.8855H8.87105V35.8464H22.0471C22.4741 34.4981 22.8802 33.2159 23.2903 31.922H22.8971C19.715 31.922 16.5317 31.922 13.3496 31.922C13.1705 31.922 12.9901 31.9285 12.8123 31.9064C12.0233 31.8091 11.4458 31.1667 11.4354 30.3868C11.425 29.612 11.996 28.958 12.7864 28.8528C12.9927 28.8256 13.2029 28.8217 13.4119 28.8217C17.357 28.8204 21.3009 28.8139 25.246 28.8269C25.9858 28.8295 26.6839 28.8074 27.3289 28.3454C27.6702 28.1014 28.1141 27.9885 28.5242 27.8562C28.9732 27.7095 29.4378 27.607 29.9011 27.485V10.8751H29.2366L29.234 10.8712ZM31.3922 39.1414C31.9632 39.7215 32.4615 40.2354 32.9676 40.7415C33.392 41.1646 33.9033 41.3878 34.5081 41.3022C35.2141 41.2009 35.7267 40.8194 35.9706 40.1394C36.2263 39.4282 36.0784 38.7767 35.5554 38.2369C35.0376 37.7048 34.4899 37.2013 33.9306 36.6614C34.4834 36.1189 34.9805 35.6453 35.4619 35.156C36.2523 34.354 36.2951 33.2535 35.5774 32.5151C34.8533 31.7715 33.7216 31.8078 32.9054 32.6124C32.4174 33.0952 31.945 33.5922 31.4324 34.1165C30.9419 33.6208 30.4864 33.151 30.0179 32.6929C29.8375 32.5164 29.6467 32.3399 29.4313 32.2127C28.6851 31.7741 27.7144 31.9623 27.1641 32.6319C26.6022 33.3145 26.5814 34.2761 27.1875 34.9289C27.7234 35.5051 28.3321 36.0151 28.942 36.5848C28.3567 37.1662 27.8597 37.6594 27.3627 38.1512C26.937 38.5717 26.693 39.0713 26.7592 39.6774C26.8384 40.408 27.229 40.9297 27.9168 41.1957C28.6098 41.4631 29.2548 41.3229 29.783 40.8194C30.3319 40.2951 30.8367 39.7254 31.3922 39.1427V39.1414Z" fill="#324367"/>
<path id="Vector_2" d="M19.406 22.4211C21.5123 22.4211 23.6172 22.412 25.7234 22.425C26.8239 22.4314 27.5559 23.3671 27.2652 24.3846C27.09 24.9984 26.6708 25.3708 26.0362 25.4799C25.8753 25.5071 25.7092 25.5136 25.5457 25.5136C21.4396 25.5149 17.3322 25.5175 13.2261 25.5136C12.2853 25.5136 11.6636 25.0853 11.4884 24.3443C11.2497 23.3308 11.9647 22.4314 13.0457 22.425C14.9275 22.4133 16.8092 22.4211 18.6909 22.4211C18.9297 22.4211 19.1685 22.4211 19.4073 22.4211H19.406Z" fill="#324367"/>
<path id="Vector_3" d="M19.3848 19.1012C17.2799 19.1012 15.1736 19.1077 13.0687 19.0986C11.9915 19.0934 11.2817 18.2551 11.4737 17.248C11.5944 16.616 12.1096 16.1268 12.752 16.0411C12.9142 16.0191 13.0791 16.0113 13.2439 16.0113C17.3357 16.01 21.4262 16.0087 25.518 16.0113C26.4562 16.0113 27.0532 16.3954 27.2621 17.1131C27.5619 18.1435 26.8287 19.0921 25.7023 19.0973C23.5973 19.1077 21.4911 19.0999 19.3861 19.0999L19.3848 19.1012Z" fill="#324367"/>
</g>
<defs>
<clipPath id="clip0_98_8129">
<rect width="46" height="46" fill="white"/>
</clipPath>
</defs>
</svg>
