<svg width="30" height="37" viewBox="0 0 30 37" fill="none" xmlns="http://www.w3.org/2000/svg">
<g id="Group 856" filter="url(#filter0_d_98_9508)">
<path id="Vector" d="M17.393 28.4269L15.3984 26.4368L18.3895 23.4509L15.3984 20.4666L17.393 18.4766L20.3841 21.4609L23.3768 18.4766L25.3713 20.4666L22.4153 23.4509L25.3713 26.4368L23.3768 28.4269L20.3841 25.4775L17.393 28.4269Z" fill="#FF6533"/>
<path id="Vector_2" d="M5.42502 28.4294C5.23641 28.4324 5.04912 28.3975 4.87437 28.3266C4.69961 28.2558 4.54102 28.1504 4.40801 28.017C4.275 27.8835 4.17033 27.7247 4.10029 27.5499C4.03024 27.3752 3.99624 27.1882 4.00033 27V4.25648C3.9971 4.06892 4.03174 3.88262 4.10219 3.7087C4.17264 3.53478 4.27747 3.3768 4.41042 3.24415C4.54336 3.11151 4.70168 3.00692 4.876 2.93663C5.05031 2.86633 5.23703 2.83177 5.42502 2.835H8.2744V0H13.9732V2.84294H16.8226C17.0113 2.83864 17.1988 2.8724 17.374 2.94221C17.5493 3.01202 17.7086 3.11644 17.8424 3.24919C17.9762 3.38195 18.0818 3.54029 18.1527 3.71475C18.2237 3.88921 18.2585 4.07617 18.2553 4.26441V15.2089C17.7434 15.348 17.2431 15.5264 16.7589 15.7426C16.2824 15.9564 15.829 16.2182 15.4059 16.524V5.68589H6.85768V25.5865H12.1283C12.2677 26.0971 12.4465 26.5963 12.6631 27.0794C12.8777 27.5547 13.1401 28.007 13.4463 28.4294H5.42502Z" fill="#5943BE"/>
</g>
<defs>
<filter id="filter0_d_98_9508" x="0" y="0" width="29.3711" height="36.4297" filterUnits="userSpaceOnUse" color-interpolation-filters="sRGB">
<feFlood flood-opacity="0" result="BackgroundImageFix"/>
<feColorMatrix in="SourceAlpha" type="matrix" values="0 0 0 0 0 0 0 0 0 0 0 0 0 0 0 0 0 0 127 0" result="hardAlpha"/>
<feOffset dy="4"/>
<feGaussianBlur stdDeviation="2"/>
<feComposite in2="hardAlpha" operator="out"/>
<feColorMatrix type="matrix" values="0 0 0 0 0 0 0 0 0 0 0 0 0 0 0 0 0 0 0.05 0"/>
<feBlend mode="normal" in2="BackgroundImageFix" result="effect1_dropShadow_98_9508"/>
<feBlend mode="normal" in="SourceGraphic" in2="effect1_dropShadow_98_9508" result="shape"/>
</filter>
</defs>
</svg>
