<svg width="24" height="24" viewBox="0 0 24 24" fill="none" xmlns="http://www.w3.org/2000/svg">
<g id="material-symbols:video-call">
<path id="Vector" d="M8.4 16H10.8V13H14.4V11H10.8V8H8.4V11H4.8V13H8.4V16ZM2.4 20C1.74 20 1.1748 19.804 0.704402 19.412C0.234002 19.02 -0.000797963 18.5493 2.03735e-06 18V6C2.03735e-06 5.45 0.235202 4.979 0.705602 4.587C1.176 4.195 1.7408 3.99934 2.4 4H16.8C17.46 4 18.0252 4.196 18.4956 4.588C18.966 4.98 19.2008 5.45067 19.2 6V10.5L24 6.5V17.5L19.2 13.5V18C19.2 18.55 18.9648 19.021 18.4944 19.413C18.024 19.805 17.4592 20.0007 16.8 20H2.4Z" fill="#FF6533"/>
</g>
</svg>
